<svg width="956" height="1519" xmlns="http://www.w3.org/2000/svg" xmlns:xlink="http://www.w3.org/1999/xlink" xml:space="preserve" overflow="hidden"><g transform="translate(-1722 -478)"><path d="M743.104 1417.65C711.143 1260.77 654.799 1130.2 586.547 1009.21 535.925 919.459 477.282 836.615 423.017 749.575 404.906 720.525 389.273 689.825 371.866 659.675 337.065 599.379 308.848 529.474 310.641 438.792 312.393 350.191 338.018 279.121 374.97 221.011 435.743 125.435 537.54 47.0735 674.127 26.4803 785.807 9.64297 890.512 38.0894 964.757 81.5067 1025.43 116.987 1072.42 164.381 1108.13 220.235 1145.42 278.533 1171.09 347.408 1173.24 437.242 1174.34 483.269 1166.81 525.89 1156.19 561.246 1145.45 597.032 1128.17 626.948 1112.79 658.902 1082.78 721.274 1045.15 778.422 1007.39 835.601 894.907 1005.93 789.333 1179.63 743.104 1417.65Z" stroke="#000000" stroke-width="30.5025" stroke-miterlimit="10" fill="#FF0000" fill-rule="evenodd" transform="matrix(1.00189 0 0 1 1448.45 478)"/><path d="M893.089 415.941C893.089 499.414 825.425 567.078 741.952 567.078 658.483 567.078 590.815 499.414 590.815 415.941 590.815 332.471 658.483 264.805 741.952 264.805 825.425 264.805 893.089 332.471 893.089 415.941Z" fill-rule="evenodd" transform="matrix(1.00189 0 0 1 1448.45 478)"/><path d="M2193.62 1896.5C2161.62 1739.52 2105.19 1608.87 2036.85 1487.79 1986.15 1397.98 1927.43 1315.08 1873.09 1227.99 1854.95 1198.92 1839.29 1168.2 1821.86 1138.03 1787.01 1077.69 1758.76 1007.74 1760.55 916.998 1762.31 828.339 1787.97 757.222 1824.97 699.074 1885.83 603.435 1987.77 525.021 2124.55 504.414 2236.39 487.566 2341.24 516.031 2415.59 559.477 2476.35 594.981 2523.41 642.405 2559.17 698.297 2596.5 756.634 2622.21 825.554 2624.36 915.447 2625.47 961.505 2617.93 1004.15 2607.29 1039.53 2596.53 1075.34 2579.23 1105.28 2563.84 1137.25 2533.78 1199.67 2496.1 1256.85 2458.28 1314.07 2345.64 1484.51 2239.92 1658.32 2193.62 1896.5Z" stroke="#000000" stroke-width="30.5293" stroke-miterlimit="8" fill="#427BEB" fill-rule="evenodd"/><path d="M2342.97 894C2342.97 977.397 2275.14 1045 2191.47 1045 2107.8 1045 2039.97 977.397 2039.97 894 2039.97 810.605 2107.8 743 2191.47 743 2275.14 743 2342.97 810.605 2342.97 894Z" fill-rule="evenodd"/></g></svg>