<svg width="896" height="1492" xmlns="http://www.w3.org/2000/svg" xmlns:xlink="http://www.w3.org/1999/xlink" xml:space="preserve" overflow="hidden"><g transform="translate(-1744 -484)"><path d="M2193.62 1896.5C2161.62 1739.52 2105.19 1608.87 2036.85 1487.79 1986.15 1397.98 1927.43 1315.08 1873.09 1227.99 1854.95 1198.92 1839.29 1168.2 1821.86 1138.03 1787.01 1077.69 1758.76 1007.74 1760.55 916.998 1762.31 828.339 1787.97 757.222 1824.97 699.074 1885.83 603.435 1987.77 525.021 2124.55 504.414 2236.39 487.566 2341.24 516.031 2415.59 559.477 2476.35 594.981 2523.41 642.405 2559.17 698.297 2596.5 756.634 2622.21 825.554 2624.36 915.447 2625.47 961.505 2617.93 1004.15 2607.29 1039.53 2596.53 1075.34 2579.23 1105.28 2563.84 1137.25 2533.78 1199.67 2496.1 1256.85 2458.28 1314.07 2345.64 1484.51 2239.92 1658.32 2193.62 1896.5Z" stroke="#000000" stroke-width="30.5293" stroke-miterlimit="8" fill="#DE5FDE" fill-rule="evenodd"/></g></svg>