<svg width="521" height="523" xmlns="http://www.w3.org/2000/svg" xmlns:xlink="http://www.w3.org/1999/xlink" xml:space="preserve" overflow="hidden"><defs><clipPath id="clip0"><rect x="152" y="374" width="521" height="523"/></clipPath></defs><g clip-path="url(#clip0)" transform="translate(-152 -374)"><path d="M28382.3 12918.4 28382.3 12907.7C28382.3 12892.6 28355.3 12886.2 28330 12886.2 28304.8 12886.2 28277.7 12893.1 28277.7 12907.7L28277.7 12918.4C28277.7 12928.1 28281.7 12937.8 28288.6 12944.8L28315.4 12971.2C28317.2 12972.8 28317.6 12974.4 28317.6 12976.6L28317.6 13011C28317.6 13013.2 28318.7 13014.8 28320.9 13015.3L28336.6 13020.2C28339.2 13020.7 28341.8 13019.1 28341.8 13015.9L28341.8 12977.1C28341.8 12975 28342.9 12973.3 28344 12971.7L28371.4 12944.8C28378.4 12937.8 28382.3 12928.1 28382.3 12918.4ZM28330 12917.9C28304.1 12917.9 28290.2 12910.9 28289.7 12908.2L28289.7 12908.2C28290.2 12905.5 28304.1 12898.5 28330 12898.5 28356 12898.5 28369.3 12905.5 28370.4 12908.2 28369.3 12910.9 28356 12917.9 28330 12917.9Z" fill="#EF35FD" transform="matrix(1.00457 0 0 1 141.051 365.281)"/><path d="M28356.8 12973.3C28353.8 12973.3 28351.6 12975.5 28351.6 12978.7 28351.6 12981.9 28353.8 12984.1 28356.8 12984.1L28380.2 12984.1C28383.2 12984.1 28385.4 12981.9 28385.4 12978.7 28385.4 12975.5 28383.2 12973.3 28380.2 12973.3L28356.8 12973.3Z" fill="#EF35FD" transform="matrix(1.00457 0 0 1 141.051 365.281)"/><path d="M28380.2 12991.6 28356.8 12991.6C28353.8 12991.6 28351.6 12993.8 28351.6 12997 28351.6 13000.3 28353.8 13002.4 28356.8 13002.4L28380.2 13002.4C28383.2 13002.4 28385.4 13000.3 28385.4 12997 28385.4 12993.8 28383.2 12991.6 28380.2 12991.6Z" fill="#EF35FD" transform="matrix(1.00457 0 0 1 141.051 365.281)"/><path d="M28380.2 13009.4 28356.8 13009.4C28353.8 13009.4 28351.6 13011.6 28351.6 13014.8 28351.6 13018 28353.8 13020.2 28356.8 13020.2L28380.2 13020.2C28383.2 13020.2 28385.4 13018 28385.4 13014.8 28385.4 13012.1 28383.2 13009.4 28380.2 13009.4Z" fill="#EF35FD" transform="matrix(1.00457 0 0 1 141.051 365.281)"/><path d="M237.904 66.7424 251.899 66.7424 251.899 152.324C251.899 155.015 254.052 157.706 257.281 157.706L280.964 157.706C283.656 157.706 286.347 155.553 286.347 152.324L286.347 66.7424 300.341 66.7424C303.033 66.7424 305.186 65.1277 306.262 62.9749 307.339 60.8218 307.339 58.1306 305.724 56.5158L273.967 16.1474C272.89 14.5326 270.737 13.4561 269.123 13.4561 266.97 13.4561 265.355 14.5326 264.278 16.1474L233.06 56.5158C231.983 57.5923 231.445 59.2071 231.445 60.2836 231.445 61.3601 231.445 62.4366 231.983 62.9749 233.598 65.1277 235.751 66.7424 237.904 66.7424Z" fill="#EF35FD" transform="matrix(1.00457 0 0 1 141.051 365.281)"/><path d="M95.2695 148.017C95.8077 148.556 96.8842 149.094 97.9607 149.632 100.114 150.171 102.805 149.632 104.42 148.017L114.108 138.329 157.168 181.389C159.321 183.542 162.55 183.542 164.703 181.389L181.389 164.703C183.542 162.55 183.542 159.321 181.389 157.168L138.329 114.108 148.017 104.42C149.632 102.805 150.171 100.114 149.632 97.9607 149.094 95.8077 146.941 94.1929 144.25 93.6547L93.6547 87.1959C91.5017 87.1959 89.8871 87.7341 88.2724 88.8106 86.6576 90.4254 86.1194 92.0399 86.6576 94.1929L93.1164 144.788C93.6547 145.865 94.1929 146.941 95.2695 148.017Z" fill="#EF35FD" transform="matrix(1.00457 0 0 1 141.051 365.281)"/><path d="M110.879 280.964 110.879 257.281C110.879 254.59 108.726 251.899 105.496 251.899L66.7424 251.899 66.7424 237.904C66.7424 235.213 65.1277 233.06 62.9749 231.983 60.8218 230.907 58.1306 230.907 56.5158 232.521L16.1474 264.278C14.5326 265.355 13.4561 267.508 13.4561 269.123 13.4561 271.276 14.5326 272.89 16.1474 273.967L56.5158 305.186C57.5923 306.262 59.2071 306.262 60.2836 306.262 61.3601 306.262 62.4366 306.262 62.9749 305.724 65.1277 304.647 66.7424 302.494 66.7424 299.803L66.7424 285.809 105.496 285.809C108.187 286.347 110.879 283.656 110.879 280.964Z" fill="#EF35FD" transform="matrix(1.00457 0 0 1 141.051 365.281)"/><path d="M164.165 357.394C162.012 355.241 158.783 355.241 156.63 357.394L113.57 400.455 103.882 390.766C102.267 389.151 99.5755 388.613 97.4225 389.151 95.2695 389.689 93.6547 391.842 93.1164 394.534L86.6576 445.13C86.6576 447.283 87.1959 448.897 88.2724 450.512 89.8871 452.127 91.5017 452.665 93.6547 452.127L144.25 445.668C145.865 445.668 146.941 444.591 148.017 444.053 148.556 443.515 149.094 442.438 149.632 441.362 150.171 439.209 149.632 436.518 148.017 434.903L138.329 425.214 181.389 382.154C183.542 380.001 183.542 376.771 181.389 374.618L164.165 357.394Z" fill="#EF35FD" transform="matrix(1.00457 0 0 1 141.051 365.281)"/><path d="M300.341 471.504 286.347 471.504 286.347 385.922C286.347 383.23 284.194 380.539 280.964 380.539L257.281 380.539C254.59 380.539 251.899 382.692 251.899 385.922L251.899 471.504 237.904 471.504C235.213 471.504 233.06 473.119 231.983 475.272 230.907 477.425 230.907 480.116 232.521 481.731L263.74 522.098C264.817 523.713 266.97 524.789 268.584 524.789 270.737 524.789 272.352 523.713 273.429 522.098L304.647 481.731C305.724 480.654 305.724 479.04 305.724 477.963 305.724 476.887 305.724 475.81 305.186 475.272 304.647 473.119 302.494 471.504 300.341 471.504Z" fill="#EF35FD" transform="matrix(1.00457 0 0 1 141.051 365.281)"/><path d="M442.977 390.228C442.438 389.689 441.362 389.151 440.285 388.613 438.132 388.075 435.441 388.613 433.826 390.228L424.138 399.916 381.077 356.856C378.924 354.703 375.695 354.703 373.542 356.856L356.856 373.542C354.703 375.695 354.703 378.924 356.856 381.077L399.916 424.138 390.228 433.826C388.613 435.441 388.075 438.132 388.613 440.285 389.151 442.438 391.304 444.053 393.995 444.591L444.591 451.05C446.744 451.05 448.359 450.512 449.974 449.436 451.589 447.821 452.127 446.206 451.589 444.053L445.13 393.457C444.591 392.381 444.053 391.304 442.977 390.228Z" fill="#EF35FD" transform="matrix(1.00457 0 0 1 141.051 365.281)"/><path d="M522.098 264.278 481.731 233.06C480.654 231.983 479.04 231.445 477.963 231.445 476.887 231.445 475.81 231.445 475.272 231.983 473.119 233.06 471.504 235.213 471.504 237.904L471.504 251.899 432.75 251.899C430.059 251.899 427.367 254.052 427.367 257.281L427.367 280.964C427.367 283.656 429.52 286.347 432.75 286.347L471.504 286.347 471.504 300.341C471.504 303.033 473.119 305.186 475.272 306.262 477.425 307.339 480.116 307.339 481.731 305.724L522.098 274.505C523.713 273.429 524.789 271.276 524.789 269.661 524.789 266.97 523.713 265.355 522.098 264.278Z" fill="#EF35FD" transform="matrix(1.00457 0 0 1 141.051 365.281)"/><path d="M374.08 180.851C376.233 183.004 379.463 183.004 381.616 180.851L424.676 137.791 434.365 147.479C435.979 149.094 438.671 149.632 440.824 149.094 442.977 148.556 444.591 146.403 445.13 143.712L451.589 93.1164C451.589 90.9636 451.05 89.3489 449.974 87.7341 448.359 86.1194 446.744 85.5811 444.591 86.1194L393.995 92.5782C392.381 92.5782 391.304 93.6547 390.228 94.1929 389.689 94.7312 389.151 95.8077 388.613 96.8842 388.075 99.0372 388.613 101.729 390.228 103.343L399.916 113.032 356.856 156.091C354.703 158.244 354.703 161.474 356.856 163.627L374.08 180.851Z" fill="#EF35FD" transform="matrix(1.00457 0 0 1 141.051 365.281)"/><path d="M269.123 194.307C199.689 194.307 156.63 242.748 145.326 257.819 139.944 264.278 139.944 273.967 145.326 280.426 156.63 295.497 199.689 343.94 269.123 343.94 338.557 343.94 381.616 295.497 392.919 280.426 398.302 273.967 398.302 264.278 392.919 257.819 381.616 242.748 338.557 194.307 269.123 194.307ZM164.165 269.123C170.624 261.049 183.542 247.054 202.38 235.751 196.998 245.978 194.307 257.819 194.307 269.123 194.307 280.964 196.998 292.268 202.38 302.494 183.542 291.191 170.624 277.197 164.165 269.123ZM269.123 321.872C240.057 321.872 216.375 298.188 216.375 269.123 216.375 240.057 240.057 216.375 269.123 216.375 298.188 216.375 321.872 240.057 321.872 269.123 321.872 298.188 298.188 321.872 269.123 321.872ZM335.866 302.494C341.249 292.268 343.94 280.426 343.94 269.123 343.94 257.281 341.249 245.978 335.866 235.751 354.703 247.593 367.621 261.049 374.08 269.123 367.621 277.197 354.703 291.191 335.866 302.494Z" fill="#EF35FD" transform="matrix(1.00457 0 0 1 141.051 365.281)"/><path d="M269.123 233.06C264.278 233.06 259.434 234.136 255.128 235.751 261.049 237.904 265.355 243.287 265.355 250.284 265.355 258.358 258.358 265.355 250.284 265.355 243.825 265.355 237.904 261.049 235.751 255.128 234.136 259.434 233.06 264.278 233.06 269.123 233.06 289.038 249.207 305.186 269.123 305.186 289.038 305.186 305.186 289.038 305.186 269.123 305.186 249.207 289.038 233.06 269.123 233.06Z" fill="#EF35FD" transform="matrix(1.00457 0 0 1 141.051 365.281)"/><text fill="#EF35FD" font-family="Arial,Arial_MSFontService,sans-serif" font-weight="700" font-size="5" transform="matrix(5.40704 0 0 5.38245 141.051 984)">Created by Adrien Coquet</text><text fill="#EF35FD" font-family="Arial,Arial_MSFontService,sans-serif" font-weight="700" font-size="5" transform="matrix(5.40704 0 0 5.38245 141.051 1010)">from the Noun Project</text></g></svg>