<?xml version="1.0" encoding="UTF-8"?>
<!DOCTYPE svg PUBLIC "-//W3C//DTD SVG 1.1//EN" "http://www.w3.org/Graphics/SVG/1.1/DTD/svg11.dtd">
<svg xmlns="http://www.w3.org/2000/svg" version="1.1" width="155px" height="161px" style="shape-rendering:geometricPrecision; text-rendering:geometricPrecision; image-rendering:optimizeQuality; fill-rule:evenodd; clip-rule:evenodd" xmlns:xlink="http://www.w3.org/1999/xlink">
<g><path style="opacity:0.251" fill="#a37e50" d="M 123.5,7.5 C 121.585,7.21552 119.919,7.54885 118.5,8.5C 104.648,6.00049 90.6475,5.00049 76.5,5.5C 67.1667,5.66667 57.8333,5.83333 48.5,6C 45.9644,6.18618 43.631,6.68618 41.5,7.5C 38.4041,6.90656 36.0708,7.90656 34.5,10.5C 36.1727,12.0863 38.1727,12.7529 40.5,12.5C 40.5,13.1667 40.1667,13.5 39.5,13.5C 37.4352,13.4828 35.4352,13.1495 33.5,12.5C 32.8333,12.5 32.5,12.1667 32.5,11.5C 33.3446,10.3285 34.0113,8.99522 34.5,7.5C 34.5,7.16667 34.5,6.83333 34.5,6.5C 48.273,4.52652 62.273,3.52652 76.5,3.5C 88.1763,3.77244 99.843,4.27244 111.5,5C 115.665,5.70536 119.665,6.53869 123.5,7.5 Z"/></g>
<g><path style="opacity:1" fill="#d79a43" d="M 118.5,8.5 C 118.833,9.16667 119.167,9.83333 119.5,10.5C 118.292,11.2341 116.959,11.5674 115.5,11.5C 115.5,10.5 115.5,9.5 115.5,8.5C 107.231,7.12032 98.8978,6.45365 90.5,6.5C 81.4938,6.33356 72.4938,6.50023 63.5,7C 62.0993,7.4101 60.766,7.9101 59.5,8.5C 57.9448,7.36731 56.1114,6.70065 54,6.5C 49.8737,7.32928 45.7071,7.66261 41.5,7.5C 43.631,6.68618 45.9644,6.18618 48.5,6C 57.8333,5.83333 67.1667,5.66667 76.5,5.5C 90.6475,5.00049 104.648,6.00049 118.5,8.5 Z"/></g>
<g><path style="opacity:0.235" fill="#bcb1ac" d="M 34.5,6.5 C 34.5,6.83333 34.5,7.16667 34.5,7.5C 32.2362,8.21862 29.9029,8.55195 27.5,8.5C 29.5994,7.38815 31.9327,6.72148 34.5,6.5 Z"/></g>
<g><path style="opacity:1" fill="#ee9b2a" d="M 90.5,6.5 C 98.8978,6.45365 107.231,7.12032 115.5,8.5C 115.5,9.5 115.5,10.5 115.5,11.5C 106.284,13.3255 96.9506,14.1588 87.5,14C 90.5385,13.6466 93.2052,12.4799 95.5,10.5C 94.293,8.45887 92.6263,7.12554 90.5,6.5 Z"/></g>
<g><path style="opacity:1" fill="#eb9a2a" d="M 59.5,8.5 C 59.33,9.82207 59.6634,10.9887 60.5,12C 62.2464,12.4709 63.913,13.1376 65.5,14C 57.1073,14.3282 48.7739,13.8282 40.5,12.5C 38.1727,12.7529 36.1727,12.0863 34.5,10.5C 36.0708,7.90656 38.4041,6.90656 41.5,7.5C 45.7071,7.66261 49.8737,7.32928 54,6.5C 56.1114,6.70065 57.9448,7.36731 59.5,8.5 Z"/></g>
<g><path style="opacity:1" fill="#bd700f" d="M 90.5,6.5 C 92.6263,7.12554 94.293,8.45887 95.5,10.5C 93.2052,12.4799 90.5385,13.6466 87.5,14C 96.9506,14.1588 106.284,13.3255 115.5,11.5C 116.959,11.5674 118.292,11.2341 119.5,10.5C 119.5,11.1667 119.833,11.5 120.5,11.5C 119.167,12.1667 117.833,12.8333 116.5,13.5C 92.5634,15.5455 68.5634,16.0455 44.5,15C 42.6183,14.8019 40.9516,14.3019 39.5,13.5C 40.1667,13.5 40.5,13.1667 40.5,12.5C 48.7739,13.8282 57.1073,14.3282 65.5,14C 63.913,13.1376 62.2464,12.4709 60.5,12C 59.6634,10.9887 59.33,9.82207 59.5,8.5C 60.766,7.9101 62.0993,7.4101 63.5,7C 72.4938,6.50023 81.4938,6.33356 90.5,6.5 Z"/></g>
<g><path style="opacity:1" fill="#ef9c25" d="M 67.5,7.5 C 73.8421,7.33379 80.1754,7.50046 86.5,8C 88.7801,8.23263 90.7801,9.06596 92.5,10.5C 91.2713,11.2811 89.938,11.7811 88.5,12C 80.5,12.6667 72.5,12.6667 64.5,12C 63.376,11.7508 62.376,11.2508 61.5,10.5C 61.6667,10.1667 61.8333,9.83333 62,9.5C 63.9483,8.89064 65.7816,8.22398 67.5,7.5 Z"/></g>
<g><path style="opacity:1" fill="#f69b1b" d="M 33.5,12.5 C 35.4352,13.1495 37.4352,13.4828 39.5,13.5C 40.9516,14.3019 42.6183,14.8019 44.5,15C 68.5634,16.0455 92.5634,15.5455 116.5,13.5C 118.167,13.5 119.833,13.5 121.5,13.5C 123.711,25.887 126.044,38.2203 128.5,50.5C 127.896,55.1943 128.729,59.5276 131,63.5C 131.387,68.4428 132.221,73.2762 133.5,78C 132.949,80.477 132.949,82.8103 133.5,85C 132.643,85.6891 131.977,86.5224 131.5,87.5C 132.698,90.9716 132.698,94.4716 131.5,98C 131.909,100.296 133.076,102.13 135,103.5C 137.652,109.06 137.985,114.727 136,120.5C 132.831,122.381 132.831,124.381 136,126.5C 137.188,125.437 137.688,124.103 137.5,122.5C 138.5,122.5 139.5,122.5 140.5,122.5C 141.15,127.091 140.983,131.757 140,136.5C 131.999,137.942 124.666,136.276 118,131.5C 117.626,132.416 117.126,133.25 116.5,134C 100.533,133.947 84.533,134.114 68.5,134.5C 58.2118,134.464 48.0452,133.797 38,132.5C 32.2947,135.862 26.4614,136.195 20.5,133.5C 27.066,133.112 33.7327,132.279 40.5,131C 40.8333,130.667 41.1667,130.333 41.5,130C 40.552,129.517 39.552,129.351 38.5,129.5C 38.2308,127.571 38.7308,125.905 40,124.5C 40.5,125 41,125.5 41.5,126C 49.1089,127.174 56.4422,126.507 63.5,124C 65.2112,122.867 65.7112,121.367 65,119.5C 63.9207,121.394 62.5874,121.727 61,120.5C 60.6667,111.5 60.3333,102.5 60,93.5C 53.4013,92.1739 46.9013,92.1739 40.5,93.5C 39.8333,93.5 39.5,93.8333 39.5,94.5C 38.8334,104.341 38.1667,114.341 37.5,124.5C 35.1236,123.421 34.957,122.088 37,120.5C 38.0315,113.989 37.5315,107.656 35.5,101.5C 37.6911,99.7924 38.0244,97.7924 36.5,95.5C 37.3128,94.1861 38.3128,93.0195 39.5,92C 43.8206,91.501 48.1539,91.3343 52.5,91.5C 53.3415,86.9566 52.0082,83.29 48.5,80.5C 45.557,79.7565 42.557,79.2565 39.5,79C 38.7476,78.3292 38.4142,77.4959 38.5,76.5C 37.8998,73.3753 36.7331,73.042 35,75.5C 34.6667,75.1667 34.3333,74.8333 34,74.5C 33.6821,70.8046 33.1821,67.1379 32.5,63.5C 32.8748,61.5406 33.5415,59.7073 34.5,58C 33.7471,56.513 32.9138,56.3463 32,57.5C 31.51,56.2068 31.3433,54.8734 31.5,53.5C 30.5,53.5 29.5,53.5 28.5,53.5C 28.2011,51.396 28.5344,49.396 29.5,47.5C 30.2811,48.7287 30.7811,50.062 31,51.5C 32.1207,48.4081 33.2874,45.4081 34.5,42.5C 33.1779,42.67 32.0113,42.3366 31,41.5C 30.7104,43.0441 30.0437,44.3774 29,45.5C 27.0972,43.559 26.2639,41.2257 26.5,38.5C 27.7331,32.9063 28.5665,27.2396 29,21.5C 29.7628,18.0589 31.2628,15.0589 33.5,12.5 Z"/></g>
<g><path style="opacity:0.486" fill="#91857d" d="M 125.5,15.5 C 126.612,17.5994 127.279,19.9327 127.5,22.5C 125.837,20.5615 125.171,18.2282 125.5,15.5 Z"/></g>
<g><path style="opacity:0.51" fill="#7f7375" d="M 24.5,23.5 C 24.5153,27.5598 24.0153,31.5598 23,35.5C 22.9005,37.6526 22.0672,39.3192 20.5,40.5C 21.3422,34.6031 22.6755,28.9364 24.5,23.5 Z"/></g>
<g><path style="opacity:0.796" fill="#351d19" d="M 34.5,7.5 C 34.0113,8.99522 33.3446,10.3285 32.5,11.5C 30.8762,11.3601 29.7096,12.0267 29,13.5C 26.3702,27.9614 23.5368,42.2947 20.5,56.5C 19.5318,54.3926 19.1984,52.0593 19.5,49.5C 19.3677,46.4299 19.701,43.4299 20.5,40.5C 22.0672,39.3192 22.9005,37.6526 23,35.5C 24.0153,31.5598 24.5153,27.5598 24.5,23.5C 24.9783,18.2729 25.9783,13.2729 27.5,8.5C 29.9029,8.55195 32.2362,8.21862 34.5,7.5 Z"/></g>
<g><path style="opacity:1" fill="#c58935" d="M 32.5,11.5 C 32.5,12.1667 32.8333,12.5 33.5,12.5C 31.2628,15.0589 29.7628,18.0589 29,21.5C 28.5665,27.2396 27.7331,32.9063 26.5,38.5C 24.7912,45.584 22.7912,52.584 20.5,59.5C 20.5,58.5 20.5,57.5 20.5,56.5C 23.5368,42.2947 26.3702,27.9614 29,13.5C 29.7096,12.0267 30.8762,11.3601 32.5,11.5 Z"/></g>
<g><path style="opacity:1" fill="#c28534" d="M 120.5,11.5 C 121.931,11.8807 122.764,12.8807 123,14.5C 125.344,23.7486 127.178,33.0819 128.5,42.5C 128.41,45.1522 129.076,47.4855 130.5,49.5C 131.787,52.698 132.453,56.0314 132.5,59.5C 131.25,59.4226 130.417,58.756 130,57.5C 129.814,54.9644 129.314,52.631 128.5,50.5C 126.044,38.2203 123.711,25.887 121.5,13.5C 119.833,13.5 118.167,13.5 116.5,13.5C 117.833,12.8333 119.167,12.1667 120.5,11.5 Z"/></g>
<g><path style="opacity:1" fill="#835723" d="M 128.5,42.5 C 129.924,44.5145 130.59,46.8478 130.5,49.5C 129.076,47.4855 128.41,45.1522 128.5,42.5 Z"/></g>
<g><path style="opacity:0.322" fill="#5f504c" d="M 19.5,49.5 C 19.1984,52.0593 19.5318,54.3926 20.5,56.5C 20.5,57.5 20.5,58.5 20.5,59.5C 20.1667,59.5 19.8333,59.5 19.5,59.5C 19.631,58.7611 19.4643,58.0944 19,57.5C 18.5,59.5 18,61.5 17.5,63.5C 17.2528,64.7133 16.5862,65.38 15.5,65.5C 16.469,59.9613 17.8023,54.628 19.5,49.5 Z"/></g>
<g><path style="opacity:1" fill="#f49b1e" d="M 26.5,38.5 C 26.2639,41.2257 27.0972,43.559 29,45.5C 30.0437,44.3774 30.7104,43.0441 31,41.5C 32.0113,42.3366 33.1779,42.67 34.5,42.5C 33.2874,45.4081 32.1207,48.4081 31,51.5C 30.7811,50.062 30.2811,48.7287 29.5,47.5C 28.5344,49.396 28.2011,51.396 28.5,53.5C 29.5,53.5 30.5,53.5 31.5,53.5C 31.3433,54.8734 31.51,56.2068 32,57.5C 32.9138,56.3463 33.7471,56.513 34.5,58C 33.5415,59.7073 32.8748,61.5406 32.5,63.5C 33.1821,67.1379 33.6821,70.8046 34,74.5C 34.3333,74.8333 34.6667,75.1667 35,75.5C 36.7331,73.042 37.8998,73.3753 38.5,76.5C 38.4142,77.4959 38.7476,78.3292 39.5,79C 42.557,79.2565 45.557,79.7565 48.5,80.5C 52.0082,83.29 53.3415,86.9566 52.5,91.5C 48.1539,91.3343 43.8206,91.501 39.5,92C 38.3128,93.0195 37.3128,94.1861 36.5,95.5C 38.0244,97.7924 37.6911,99.7924 35.5,101.5C 37.5315,107.656 38.0315,113.989 37,120.5C 34.957,122.088 35.1236,123.421 37.5,124.5C 38.1667,114.341 38.8334,104.341 39.5,94.5C 39.5,104.167 39.5,113.833 39.5,123.5C 46.1667,123.5 52.8333,123.5 59.5,123.5C 59.6665,113.828 59.4998,104.161 59,94.5C 52.9242,93.5236 46.7576,93.1903 40.5,93.5C 46.9013,92.1739 53.4013,92.1739 60,93.5C 60.3333,102.5 60.6667,111.5 61,120.5C 62.5874,121.727 63.9207,121.394 65,119.5C 65.7112,121.367 65.2112,122.867 63.5,124C 56.4422,126.507 49.1089,127.174 41.5,126C 41,125.5 40.5,125 40,124.5C 38.7308,125.905 38.2308,127.571 38.5,129.5C 39.552,129.351 40.552,129.517 41.5,130C 41.1667,130.333 40.8333,130.667 40.5,131C 33.7327,132.279 27.066,133.112 20.5,133.5C 26.4614,136.195 32.2947,135.862 38,132.5C 48.0452,133.797 58.2118,134.464 68.5,134.5C 84.533,134.114 100.533,133.947 116.5,134C 117.126,133.25 117.626,132.416 118,131.5C 124.666,136.276 131.999,137.942 140,136.5C 140.983,131.757 141.15,127.091 140.5,122.5C 139.5,122.5 138.5,122.5 137.5,122.5C 137.688,124.103 137.188,125.437 136,126.5C 132.831,124.381 132.831,122.381 136,120.5C 137.985,114.727 137.652,109.06 135,103.5C 133.076,102.13 131.909,100.296 131.5,98C 132.698,94.4716 132.698,90.9716 131.5,87.5C 131.977,86.5224 132.643,85.6891 133.5,85C 132.949,82.8103 132.949,80.477 133.5,78C 132.221,73.2762 131.387,68.4428 131,63.5C 128.729,59.5276 127.896,55.1943 128.5,50.5C 129.314,52.631 129.814,54.9644 130,57.5C 130.417,58.756 131.25,59.4226 132.5,59.5C 133.341,71.235 135.675,82.5683 139.5,93.5C 139.99,102.302 141.99,110.635 145.5,118.5C 145.5,118.833 145.5,119.167 145.5,119.5C 146.282,126.518 147.282,133.518 148.5,140.5C 144.19,139.92 139.857,139.586 135.5,139.5C 130.195,138.806 124.862,138.472 119.5,138.5C 117.369,137.686 115.036,137.186 112.5,137C 88.5,136.333 64.5,136.333 40.5,137C 37.6353,137.183 34.9686,137.683 32.5,138.5C 27.1667,138.833 21.8333,139.167 16.5,139.5C 13.1667,139.5 9.83333,139.5 6.5,139.5C 8.07386,130.575 9.07386,121.575 9.5,112.5C 9.79586,110.597 10.4625,108.93 11.5,107.5C 13.9995,98.0102 15.6662,88.3435 16.5,78.5C 16.5,78.1667 16.5,77.8333 16.5,77.5C 18.2652,74.6071 19.4319,71.2738 20,67.5C 20.4974,64.854 20.6641,62.1873 20.5,59.5C 22.7912,52.584 24.7912,45.584 26.5,38.5 Z"/></g>
<g><path style="opacity:1" fill="#ab7632" d="M 132.5,59.5 C 135.755,70.5378 138.088,81.8712 139.5,93.5C 135.675,82.5683 133.341,71.235 132.5,59.5 Z"/></g>
<g><path style="opacity:1" fill="#b87f35" d="M 19.5,59.5 C 19.8333,59.5 20.1667,59.5 20.5,59.5C 20.6641,62.1873 20.4974,64.854 20,67.5C 19.4319,71.2738 18.2652,74.6071 16.5,77.5C 17.5002,71.4989 18.5002,65.4989 19.5,59.5 Z"/></g>
<g><path style="opacity:1" fill="#ec9b31" d="M 60.5,46.5 C 62.3711,56.2833 62.8711,66.2833 62,76.5C 60.8829,78.1243 59.3829,79.1243 57.5,79.5C 51.8631,78.7574 46.1964,78.2574 40.5,78C 39.9558,77.2828 39.2891,76.7828 38.5,76.5C 38.5,67.5 38.5,58.5 38.5,49.5C 37.5,49.5 36.5,49.5 35.5,49.5C 35.5,48.1667 35.5,46.8333 35.5,45.5C 44.0168,45.1739 52.3501,45.5073 60.5,46.5 Z"/></g>
<g><path style="opacity:1" fill="#a15a0c" d="M 60.5,46.5 C 60.5,56.5 60.5,66.5 60.5,76.5C 53.8333,76.5 47.1667,76.5 40.5,76.5C 40.5,66.5 40.5,56.5 40.5,46.5C 47.1667,46.5 53.8333,46.5 60.5,46.5 Z"/></g>
<g><path style="opacity:1" fill="#f39b1f" d="M 42.5,48.5 C 47.8333,48.5 53.1667,48.5 58.5,48.5C 58.5,57.1667 58.5,65.8333 58.5,74.5C 53.1667,74.5 47.8333,74.5 42.5,74.5C 42.5,65.8333 42.5,57.1667 42.5,48.5 Z"/></g>
<g><path style="opacity:0.696" fill="#706362" d="M 136.5,66.5 C 138.102,70.2393 139.102,74.2393 139.5,78.5C 137.308,74.9019 136.308,70.9019 136.5,66.5 Z"/></g>
<g><path style="opacity:0.275" fill="#a09998" d="M 15.5,67.5 C 15.6633,69.8568 15.4966,72.1902 15,74.5C 14.6174,75.056 14.1174,75.3893 13.5,75.5C 13.5651,72.5718 14.2318,69.9052 15.5,67.5 Z"/></g>
<g><path style="opacity:1" fill="#ea9926" d="M 89.5,45.5 C 96.7546,45.1868 103.921,45.5201 111,46.5C 111.5,55.4938 111.666,64.4938 111.5,73.5C 112.552,73.3505 113.552,73.5172 114.5,74C 113.663,75.0113 113.33,76.1779 113.5,77.5C 105.712,79.5242 97.7122,80.0242 89.5,79C 88.5697,77.8061 87.9031,76.4728 87.5,75C 88.7764,68.5125 88.7764,62.0125 87.5,55.5C 86.2638,56.2458 84.9305,56.5792 83.5,56.5C 83.6095,53.4659 84.9428,52.4659 87.5,53.5C 88.6662,51.6351 88.3329,49.9684 86.5,48.5C 87.3398,47.265 88.3398,46.265 89.5,45.5 Z"/></g>
<g><path style="opacity:1" fill="#8d4605" d="M 90.5,46.5 C 96.8333,46.5 103.167,46.5 109.5,46.5C 109.5,56.5 109.5,66.5 109.5,76.5C 103.167,76.5 96.8333,76.5 90.5,76.5C 90.5,66.5 90.5,56.5 90.5,46.5 Z"/></g>
<g><path style="opacity:1" fill="#d98f38" d="M 91.5,48.5 C 97.1667,48.5 102.833,48.5 108.5,48.5C 108.5,57.1667 108.5,65.8333 108.5,74.5C 102.833,74.5 97.1667,74.5 91.5,74.5C 91.5,65.8333 91.5,57.1667 91.5,48.5 Z"/></g>
<g><path style="opacity:1" fill="#f49c1e" d="M 92.5,49.5 C 97.5,49.5 102.5,49.5 107.5,49.5C 107.5,57.5 107.5,65.5 107.5,73.5C 102.5,73.5 97.5,73.5 92.5,73.5C 92.5,65.5 92.5,57.5 92.5,49.5 Z"/></g>
<g><path style="opacity:0.314" fill="#958a88" d="M 10.5,93.5 C 10.6621,95.5273 10.4955,97.5273 10,99.5C 9.61742,100.056 9.11742,100.389 8.5,100.5C 8.72148,97.9327 9.38815,95.5994 10.5,93.5 Z"/></g>
<g><path style="opacity:1" fill="#c4883b" d="M 16.5,78.5 C 15.6662,88.3435 13.9995,98.0102 11.5,107.5C 12.5285,97.6113 14.1952,87.9447 16.5,78.5 Z"/></g>
<g><path style="opacity:0.557" fill="#746f6c" d="M 143.5,97.5 C 144.612,99.5994 145.279,101.933 145.5,104.5C 143.837,102.562 143.171,100.228 143.5,97.5 Z"/></g>
<g><path style="opacity:0.871" fill="#3f261e" d="M 19.5,59.5 C 18.5002,65.4989 17.5002,71.4989 16.5,77.5C 16.5,77.8333 16.5,78.1667 16.5,78.5C 14.1952,87.9447 12.5285,97.6113 11.5,107.5C 10.4625,108.93 9.79586,110.597 9.5,112.5C 6.71566,122.165 5.04899,132.165 4.5,142.5C 5.5,142.5 6.5,142.5 7.5,142.5C 11.554,142.21 12.054,142.877 9,144.5C 8.51722,145.448 8.35055,146.448 8.5,147.5C 7.0772,145.455 5.0772,144.455 2.5,144.5C 2.66018,142.801 2.49351,141.134 2,139.5C 1.76791,140.737 1.26791,141.737 0.5,142.5C 0.575096,139.794 0.908429,137.127 1.5,134.5C 2.58617,134.38 3.25284,133.713 3.5,132.5C 4.91282,128.277 5.57949,123.943 5.5,119.5C 6.17705,113.105 7.17705,106.772 8.5,100.5C 9.11742,100.389 9.61742,100.056 10,99.5C 10.4955,97.5273 10.6621,95.5273 10.5,93.5C 11.4987,87.5038 12.4987,81.5038 13.5,75.5C 14.1174,75.3893 14.6174,75.056 15,74.5C 15.4966,72.1902 15.6633,69.8568 15.5,67.5C 15.5,66.8333 15.5,66.1667 15.5,65.5C 16.5862,65.38 17.2528,64.7133 17.5,63.5C 18,61.5 18.5,59.5 19,57.5C 19.4643,58.0944 19.631,58.7611 19.5,59.5 Z"/></g>
<g><path style="opacity:1" fill="#a35a0d" d="M 40.5,93.5 C 46.7576,93.1903 52.9242,93.5236 59,94.5C 59.4998,104.161 59.6665,113.828 59.5,123.5C 52.8333,123.5 46.1667,123.5 39.5,123.5C 39.5,113.833 39.5,104.167 39.5,94.5C 39.5,93.8333 39.8333,93.5 40.5,93.5 Z"/></g>
<g><path style="opacity:1" fill="#914a09" d="M 90.5,93.5 C 96.8333,93.5 103.167,93.5 109.5,93.5C 109.5,103.833 109.5,114.167 109.5,124.5C 103.167,124.5 96.8333,124.5 90.5,124.5C 90.5,114.167 90.5,103.833 90.5,93.5 Z"/></g>
<g><path style="opacity:1" fill="#cd832a" d="M 107.5,121.5 C 107.5,113.167 107.5,104.833 107.5,96.5C 102.5,96.5 97.5,96.5 92.5,96.5C 92.5,104.833 92.5,113.167 92.5,121.5C 91.507,113.016 91.1736,104.349 91.5,95.5C 97.1667,95.5 102.833,95.5 108.5,95.5C 108.826,104.349 108.493,113.016 107.5,121.5 Z"/></g>
<g><path style="opacity:1" fill="#f39c21" d="M 107.5,121.5 C 102.5,121.5 97.5,121.5 92.5,121.5C 92.5,113.167 92.5,104.833 92.5,96.5C 97.5,96.5 102.5,96.5 107.5,96.5C 107.5,104.833 107.5,113.167 107.5,121.5 Z"/></g>
<g><path style="opacity:1" fill="#f29c21" d="M 41.5,96.5 C 46.8333,96.5 52.1667,96.5 57.5,96.5C 57.5,104.833 57.5,113.167 57.5,121.5C 52.1667,121.5 46.8333,121.5 41.5,121.5C 41.5,113.167 41.5,104.833 41.5,96.5 Z"/></g>
<g><path style="opacity:1" fill="#b67e37" d="M 139.5,93.5 C 142.574,101.465 144.574,109.799 145.5,118.5C 141.99,110.635 139.99,102.302 139.5,93.5 Z"/></g>
<g><path style="opacity:0.898" fill="#3b2b29" d="M 123.5,7.5 C 124.774,9.99253 125.44,12.6592 125.5,15.5C 125.171,18.2282 125.837,20.5615 127.5,22.5C 130.807,37.0664 133.807,51.7331 136.5,66.5C 136.308,70.9019 137.308,74.9019 139.5,78.5C 141.194,84.6346 142.527,90.9679 143.5,97.5C 143.171,100.228 143.837,102.562 145.5,104.5C 147.892,116.734 150.892,128.734 154.5,140.5C 154.5,143.167 154.5,145.833 154.5,148.5C 154.167,148.5 153.833,148.5 153.5,148.5C 151.856,148.286 150.356,148.62 149,149.5C 148.536,148.906 148.369,148.239 148.5,147.5C 148.532,145.381 147.532,144.048 145.5,143.5C 145.842,142.662 146.508,142.328 147.5,142.5C 148.5,142.5 149.5,142.5 150.5,142.5C 149.909,134.483 148.242,126.816 145.5,119.5C 145.5,119.167 145.5,118.833 145.5,118.5C 144.574,109.799 142.574,101.465 139.5,93.5C 138.088,81.8712 135.755,70.5378 132.5,59.5C 132.453,56.0314 131.787,52.698 130.5,49.5C 130.59,46.8478 129.924,44.5145 128.5,42.5C 127.178,33.0819 125.344,23.7486 123,14.5C 122.764,12.8807 121.931,11.8807 120.5,11.5C 119.833,11.5 119.5,11.1667 119.5,10.5C 119.167,9.83333 118.833,9.16667 118.5,8.5C 119.919,7.54885 121.585,7.21552 123.5,7.5 Z"/></g>
<g><path style="opacity:1" fill="#b9843a" d="M 145.5,119.5 C 148.242,126.816 149.909,134.483 150.5,142.5C 149.5,142.5 148.5,142.5 147.5,142.5C 143.539,141.316 139.539,140.316 135.5,139.5C 139.857,139.586 144.19,139.92 148.5,140.5C 147.282,133.518 146.282,126.518 145.5,119.5 Z"/></g>
<g><path style="opacity:0.278" fill="#7c7271" d="M 5.5,119.5 C 5.57949,123.943 4.91282,128.277 3.5,132.5C 3.25284,133.713 2.58617,134.38 1.5,134.5C 2.38773,129.276 3.72106,124.276 5.5,119.5 Z"/></g>
<g><path style="opacity:1" fill="#b56a15" d="M 119.5,138.5 C 118.209,138.263 117.209,138.596 116.5,139.5C 90.8353,138.177 65.1687,138.177 39.5,139.5C 37.3926,138.532 35.0593,138.198 32.5,138.5C 34.9686,137.683 37.6353,137.183 40.5,137C 64.5,136.333 88.5,136.333 112.5,137C 115.036,137.186 117.369,137.686 119.5,138.5 Z"/></g>
<g><path style="opacity:1" fill="#96561a" d="M 32.5,138.5 C 35.0593,138.198 37.3926,138.532 39.5,139.5C 29.4634,139.557 19.7967,141.223 10.5,144.5C 10.281,145.675 10.6143,146.675 11.5,147.5C 12.7387,147.942 13.7387,148.609 14.5,149.5C 12.7085,149.634 11.0418,149.301 9.5,148.5C 8.83333,148.5 8.5,148.167 8.5,147.5C 8.35055,146.448 8.51722,145.448 9,144.5C 12.054,142.877 11.554,142.21 7.5,142.5C 10.5349,141.626 13.5349,140.626 16.5,139.5C 21.8333,139.167 27.1667,138.833 32.5,138.5 Z"/></g>
<g><path style="opacity:1" fill="#d39339" d="M 9.5,112.5 C 9.07386,121.575 8.07386,130.575 6.5,139.5C 9.83333,139.5 13.1667,139.5 16.5,139.5C 13.5349,140.626 10.5349,141.626 7.5,142.5C 6.5,142.5 5.5,142.5 4.5,142.5C 5.04899,132.165 6.71566,122.165 9.5,112.5 Z"/></g>
<g><path style="opacity:1" fill="#e59a33" d="M 116.5,139.5 C 125.787,139.783 134.787,141.116 143.5,143.5C 144.167,143.5 144.833,143.5 145.5,143.5C 147.532,144.048 148.532,145.381 148.5,147.5C 142.443,150.011 136.11,151.344 129.5,151.5C 119.896,152.954 110.23,153.621 100.5,153.5C 79.1531,153.71 57.8198,153.376 36.5,152.5C 28.9783,152.517 21.6449,151.517 14.5,149.5C 13.7387,148.609 12.7387,147.942 11.5,147.5C 10.6143,146.675 10.281,145.675 10.5,144.5C 19.7967,141.223 29.4634,139.557 39.5,139.5C 65.1687,138.177 90.8353,138.177 116.5,139.5 Z"/></g>
<g><path style="opacity:1" fill="#84410d" d="M 116.5,139.5 C 117.209,138.596 118.209,138.263 119.5,138.5C 124.862,138.472 130.195,138.806 135.5,139.5C 139.539,140.316 143.539,141.316 147.5,142.5C 146.508,142.328 145.842,142.662 145.5,143.5C 144.833,143.5 144.167,143.5 143.5,143.5C 134.787,141.116 125.787,139.783 116.5,139.5 Z"/></g>
<g><path style="opacity:1" fill="#272021" d="M 8.5,147.5 C 8.5,148.167 8.83333,148.5 9.5,148.5C 9.5,149.833 8.83333,150.5 7.5,150.5C 2.69429,150.026 0.360954,147.36 0.5,142.5C 1.26791,141.737 1.76791,140.737 2,139.5C 2.49351,141.134 2.66018,142.801 2.5,144.5C 5.0772,144.455 7.0772,145.455 8.5,147.5 Z"/></g>
<g><path style="opacity:1" fill="#f59b1e" d="M 143.5,143.5 C 144.234,144.708 144.567,146.041 144.5,147.5C 139.778,147.848 135.111,148.515 130.5,149.5C 130.5,147.167 130.5,144.833 130.5,142.5C 134.824,142.927 139.158,143.261 143.5,143.5 Z"/></g>
<g><path style="opacity:1" fill="#673610" d="M 30.5,143.5 C 31.552,143.351 32.552,143.517 33.5,144C 32.4677,145.627 31.1344,146.793 29.5,147.5C 28.5028,147.53 27.8361,147.03 27.5,146C 27.7483,144.251 28.7483,143.418 30.5,143.5 Z"/></g>
<g><path style="opacity:1" fill="#66330f" d="M 122.5,144.5 C 123.209,143.596 124.209,143.263 125.5,143.5C 130.757,144.97 130.757,146.304 125.5,147.5C 124.9,146.1 123.9,145.1 122.5,144.5 Z"/></g>
<g><path style="opacity:1" fill="#c7760f" d="M 125.5,143.5 C 124.209,143.263 123.209,143.596 122.5,144.5C 123.9,145.1 124.9,146.1 125.5,147.5C 124.737,148.268 123.737,148.768 122.5,149C 98.5584,151.427 74.5584,152.093 50.5,151C 43.203,150.719 36.203,149.552 29.5,147.5C 31.1344,146.793 32.4677,145.627 33.5,144C 32.552,143.517 31.552,143.351 30.5,143.5C 34.944,142.187 39.6107,141.354 44.5,141C 65.5,140.333 86.5,140.333 107.5,141C 113.689,141.517 119.689,142.35 125.5,143.5 Z"/></g>
<g><path style="opacity:1" fill="#f29a1f" d="M 122.5,144.5 C 122.586,145.496 122.252,146.329 121.5,147C 116.215,148.026 110.882,148.693 105.5,149C 81.779,150.016 58.1123,149.516 34.5,147.5C 34.5,146.5 34.5,145.5 34.5,144.5C 63.8346,140.533 93.168,140.533 122.5,144.5 Z"/></g>
<g><path style="opacity:0.859" fill="#5e412b" d="M 148.5,147.5 C 148.369,148.239 148.536,148.906 149,149.5C 150.356,148.62 151.856,148.286 153.5,148.5C 150.865,150.328 147.865,151.495 144.5,152C 139.519,152.748 134.519,153.248 129.5,153.5C 128.761,153.631 128.094,153.464 127.5,153C 128.416,152.722 129.082,152.222 129.5,151.5C 136.11,151.344 142.443,150.011 148.5,147.5 Z"/></g>
<g><path style="opacity:0.729" fill="#704d29" d="M 9.5,148.5 C 11.0418,149.301 12.7085,149.634 14.5,149.5C 21.6449,151.517 28.9783,152.517 36.5,152.5C 42.9188,154.201 49.5854,154.867 56.5,154.5C 54.3926,155.468 52.0593,155.802 49.5,155.5C 35.1848,155.281 21.1848,153.614 7.5,150.5C 8.83333,150.5 9.5,149.833 9.5,148.5 Z"/></g>
<g><path style="opacity:1" fill="#bf8533" d="M 36.5,152.5 C 57.8198,153.376 79.1531,153.71 100.5,153.5C 86.0095,154.496 71.3428,154.829 56.5,154.5C 49.5854,154.867 42.9188,154.201 36.5,152.5 Z"/></g>
<g><path style="opacity:0.739" fill="#9d794e" d="M 129.5,151.5 C 129.082,152.222 128.416,152.722 127.5,153C 128.094,153.464 128.761,153.631 129.5,153.5C 122.704,154.821 115.704,155.655 108.5,156C 88.6624,156.829 68.9957,156.662 49.5,155.5C 52.0593,155.802 54.3926,155.468 56.5,154.5C 71.3428,154.829 86.0095,154.496 100.5,153.5C 110.23,153.621 119.896,152.954 129.5,151.5 Z"/></g>
</svg>
