<svg width="1124" height="728" xmlns="http://www.w3.org/2000/svg" xmlns:xlink="http://www.w3.org/1999/xlink" xml:space="preserve" overflow="hidden"><g transform="translate(-78 8)"><g><g><g><g><g><path d="M750.716 119.431C788.412 119.431 818.964 149.984 818.964 187.678L818.964 358.304 993.178 271.191C1038.55 248.505 1091.94 281.501 1091.94 332.236L1091.94 589.108C1091.94 639.842 1038.55 672.839 993.178 650.155L818.964 563.041 818.964 733.665C818.964 771.362 788.412 801.913 750.716 801.913L68.2469 801.913C30.5528 801.913 0 771.362 0 733.665L0 187.691C0 149.997 30.5528 119.444 68.2469 119.444ZM290.054 608.421 545.974 460.66 290.054 312.9Z" stroke="#000000" stroke-width="10.7054" fill-rule="evenodd" transform="matrix(1.02935 0 0 1 78 -103.327)"/></g></g><g><g><g><path d="M768.913 122.326C807.522 122.326 838.813 153.62 838.813 192.227L838.813 366.988 1017.25 277.764C1063.73 254.528 1118.41 288.323 1118.41 340.288L1118.41 603.387C1118.41 655.353 1063.73 689.149 1017.25 665.911L838.813 576.689 838.813 751.449C838.813 790.058 807.522 821.349 768.913 821.349L69.9009 821.349C31.2933 821.349 0 790.058 0 751.449L0 192.24C0 153.632 31.2933 122.339 69.9009 122.339ZM297.084 623.168 559.209 471.829 297.084 320.484Z" stroke="#000000" stroke-width="10.9649" fill="#E61A1A" fill-rule="evenodd" transform="matrix(1 0 0 1.00073 79.1962 -115.311)"/></g></g></g></g></g></g></g></svg>