<svg width="544" height="389" xmlns="http://www.w3.org/2000/svg" xmlns:xlink="http://www.w3.org/1999/xlink" xml:space="preserve" overflow="hidden"><defs><clipPath id="clip0"><rect x="692" y="166" width="544" height="389"/></clipPath></defs><g clip-path="url(#clip0)" transform="translate(-692 -166)"><path d="M669.086 309.703 669.086 459.839C669.086 484.5 644.425 501.908 621.217 493.201L520.402 456.21C516.778 486.673 490.664 509.881 459.478 509.881L207.801 509.885C173.711 509.885 146.877 482.323 146.877 448.961L146.877 306.075C146.877 271.985 174.439 245.151 207.801 245.151L218.679 245.151 218.679 236.45C218.679 226.296 227.381 217.589 237.539 217.589L241.892 217.589 241.892 168.995C241.892 160.294 249.146 152.313 258.575 152.313L386.226 152.313C391.303 146.512 398.556 142.882 407.258 142.882L512.427 142.882C528.382 142.882 541.441 155.937 541.441 171.168L541.441 171.892C541.441 187.848 528.387 200.178 512.427 200.178L407.262 200.183C398.562 200.183 391.307 196.559 386.23 190.754L298.465 190.754 298.465 217.589 328.203 217.589C338.357 217.589 347.063 226.291 347.063 236.451L347.063 245.151 460.209 245.151C494.299 245.151 521.133 272.713 521.133 306.075L521.133 312.605 621.224 276.343C644.432 267.637 669.093 284.316 669.093 309.7Z" stroke="#000000" stroke-width="12.2241" fill="#E61A1A" transform="matrix(1.00006 0 0 1 558.003 33.0151)"/><path d="M24.2969-1.45707C23.0448-0.801388 21.7379-0.309621 20.381 0.0181842 19.0195 0.346025 17.6035 0.509951 16.1373 0.509951 11.7298 0.509951 8.23733-0.714919 5.66462-3.16909 3.08747-5.63247 1.80338-8.97009 1.80338-13.1865 1.80338-17.412 3.08747-20.7541 5.66462-23.2221 8.23722-25.6854 11.7296-26.9194 16.1373-26.9194 17.6035-26.9194 19.0196-26.7464 20.381-26.4094 21.7379-26.0816 23.0448-25.5944 24.2969-24.9524L24.2969-19.4702C23.0311-20.3308 21.7881-20.9636 20.5632-21.3644 19.3338-21.7651 18.0406-21.9654 16.6838-21.9654 14.2523-21.9654 12.3399-21.1868 10.9465-19.6341 9.54869-18.0769 8.85198-15.9276 8.85198-13.1866 8.85198-10.4638 9.54865-8.32364 10.9465-6.75735 12.3399-5.20015 14.2522-4.42604 16.6838-4.42604 18.0407-4.42604 19.3338-4.62639 20.5632-5.02707 21.7881-5.42777 23.0311-6.05612 24.2969-6.92126Z" stroke="#000000" stroke-width="12.2241" fill="#E61A1A" transform="matrix(1.00006 0 0 1 639.604 794.575)"/><path d="M17.7762-14.425C17.2161-14.6891 16.6652-14.8848 16.1188-15.0078 15.5724-15.1262 15.0169-15.1899 14.4613-15.1899 12.8313-15.1899 11.5745-14.6663 10.6912-13.6236 9.81691-12.5762 9.37979-11.0828 9.37979-9.14299L9.37979 0.000174848 3.04154 0.000174848 3.04154-19.8347 9.37979-19.8347 9.37979-16.5744C10.1903-17.8721 11.1283-18.8193 12.1846-19.4157 13.241-20.0076 14.5068-20.3082 15.9912-20.3082 16.1961-20.3082 16.4192-20.2945 16.665-20.2717 16.9201-20.258 17.2843-20.2217 17.7578-20.1624Z" stroke="#000000" stroke-width="12.2241" fill="#E61A1A" transform="matrix(1.00006 0 0 1 666.22 794.575)"/><path d="M22.8398-9.96273 22.8398-8.15958 8.01388-8.15958C8.16869-6.67524 8.71054-5.55959 9.63484-4.80833 10.5546-4.06613 11.8432-3.69732 13.4961-3.69732 14.8302-3.69732 16.1962-3.88855 17.594-4.28014 18.9874-4.68084 20.4262-5.28188 21.9106-6.0833L21.9106-1.20212C20.4034-0.628393 18.8963-0.204934 17.3937 0.0728767 15.9002 0.36429 14.4067 0.509997 12.9131 0.509997 9.31603 0.509997 6.52475-0.400671 4.53498-2.22206 2.5543-4.0434 1.56617-6.59782 1.56617-9.88986 1.56617-13.1318 2.53603-15.6726 4.48031-17.5213 6.43372-19.3791 9.12475-20.3079 12.5489-20.3079 15.6679-20.3079 18.1631-19.3654 20.0346-17.4848 21.9015-15.6134 22.8394-13.1045 22.8394-9.96271ZM16.3194-12.0755C16.3194-13.2775 15.9642-14.2474 15.2631-14.9896 14.5709-15.7272 13.6512-16.1006 12.5128-16.1006 11.2834-16.1006 10.2908-15.7545 9.52579-15.0625 8.76077-14.3704 8.27819-13.3732 8.08691-12.0755Z" stroke="#000000" stroke-width="12.2241" fill="#E61A1A" transform="matrix(1.00006 0 0 1 684.107 794.575)"/><path d="M11.9293-8.92449C10.6043-8.92449 9.60709-8.69682 8.94232-8.2506 8.28664-7.79982 7.9588-7.13959 7.9588-6.26537 7.9588-5.46398 8.22289-4.83103 8.76019-4.37118 9.29293-3.9204 10.0397-3.69729 11.0005-3.69729 12.1888-3.69729 13.1905-4.12075 14.0057-4.97229 14.8162-5.83287 15.226-6.90751 15.226-8.19602L15.226-8.92456ZM21.6188-11.3105 21.6188 0 15.2259 0 15.2259-2.93232C14.3744-1.7303 13.4137-0.856057 12.3481-0.309598 11.2918 0.236803 10.0032 0.509997 8.4869 0.509997 6.43337 0.509997 4.76228-0.0819339 3.4782-1.27485 2.2032-2.47688 1.56582-4.03419 1.56582-5.95566 1.56582-8.27333 2.35811-9.97169 3.9518-11.0554 5.55458-12.1482 8.06796-12.6946 11.4922-12.6946L15.2259-12.6946 15.2259-13.1864C15.2259-14.1925 14.8298-14.9257 14.0421-15.3901 13.2498-15.8636 12.0203-16.1004 10.3447-16.1004 8.98324-16.1004 7.7129-15.9592 6.53816-15.6816 5.3725-15.4129 4.28879-15.0076 3.29624-14.4612L3.29624-19.3059C4.65318-19.6337 6.01455-19.8795 7.37603-20.0526 8.74661-20.2211 10.1172-20.3076 11.4922-20.3076 15.0711-20.3076 17.6529-19.6019 19.2328-18.1948 20.822-16.7833 21.6188-14.4884 21.6188-11.3103Z" stroke="#000000" stroke-width="12.2241" fill="#E61A1A" transform="matrix(1.00006 0 0 1 708.7 794.575)"/><path d="M9.96273-25.4626 9.96273-19.8347 16.5014-19.8347 16.5014-15.2996 9.96273-15.2996 9.96273-6.88494C9.96273-5.96061 10.1449-5.33683 10.5091-5.00894 10.8825-4.6902 11.611-4.53539 12.6947-4.53539L15.9549-4.53539 15.9549-0.000291414 10.5091-0.000291414C8.00484-0.000291414 6.23351-0.519369 5.19084-1.5667 4.14356-2.60941 3.62443-4.38071 3.62443-6.885L3.62443-15.2996 0.473547-15.2996 0.473547-19.8347 3.62443-19.8347 3.62443-25.4626Z" stroke="#000000" stroke-width="12.2241" fill="#E61A1A" transform="matrix(1.00006 0 0 1 733.177 794.575)"/><path d="M22.8398-9.96273 22.8398-8.15958 8.01388-8.15958C8.16869-6.67524 8.71054-5.55959 9.63484-4.80833 10.5546-4.06613 11.8432-3.69732 13.4961-3.69732 14.8302-3.69732 16.1962-3.88855 17.594-4.28014 18.9874-4.68084 20.4262-5.28188 21.9106-6.0833L21.9106-1.20212C20.4034-0.628393 18.8963-0.204934 17.3937 0.0728767 15.9002 0.36429 14.4067 0.509997 12.9131 0.509997 9.31603 0.509997 6.52475-0.400671 4.53498-2.22206 2.5543-4.0434 1.56617-6.59782 1.56617-9.88986 1.56617-13.1318 2.53603-15.6726 4.48031-17.5213 6.43372-19.3791 9.12475-20.3079 12.5489-20.3079 15.6679-20.3079 18.1631-19.3654 20.0346-17.4848 21.9015-15.6134 22.8394-13.1045 22.8394-9.96271ZM16.3194-12.0755C16.3194-13.2775 15.9642-14.2474 15.2631-14.9896 14.5709-15.7272 13.6512-16.1006 12.5128-16.1006 11.2834-16.1006 10.2908-15.7545 9.52579-15.0625 8.76077-14.3704 8.27819-13.3732 8.08691-12.0755Z" stroke="#000000" stroke-width="12.2241" fill="#E61A1A" transform="matrix(1.00006 0 0 1 750.512 794.575)"/><path d="M16.5383-16.9206 16.5383-27.5572 22.913-27.5572 22.913 0 16.5383 0 16.5383-2.85947C15.6641-1.69381 14.6988-0.837756 13.6424-0.291414 12.5951 0.241326 11.3839 0.509974 9.99969 0.509974 7.55904 0.509974 5.54654-0.459886 3.97104-2.40416 2.40463-4.34393 1.62154-6.83913 1.62154-9.88988 1.62154-12.9497 2.40472-15.4495 3.97104-17.3938 5.54654-19.3336 7.55904-20.3079 9.99969-20.3079 11.3703-20.3079 12.586-20.0347 13.6424-19.4883 14.6987-18.9419 15.6641-18.086 16.5383-16.9203ZM12.3675-4.09844C13.7152-4.09844 14.7444-4.59021 15.4637-5.57369 16.1786-6.56632 16.5383-8.00513 16.5383-9.89023 16.5383-11.7844 16.1786-13.2233 15.4637-14.2068 14.7443-15.1994 13.7152-15.7002 12.3675-15.7002 11.0198-15.7002 9.98605-15.1993 9.27127-14.2068 8.55184-13.2233 8.19667-11.7844 8.19667-9.89023 8.19667-8.00513 8.55184-6.56625 9.27127-5.57369 9.98614-4.59017 11.0198-4.09844 12.3675-4.09844Z" stroke="#000000" stroke-width="12.2241" fill="#E61A1A" transform="matrix(1.00006 0 0 1 775.11 794.575)"/><path d="M13.6055-4.09798C14.9533-4.09798 15.9824-4.58974 16.7017-5.57323 17.4166-6.56585 17.7764-8.00467 17.7764-9.88976 17.7764-11.784 17.4166-13.2228 16.7017-14.2063 15.9823-15.199 14.9533-15.6997 13.6055-15.6997 12.244-15.6997 11.2014-15.1989 10.4728-14.2063 9.74429-13.2091 9.38002-11.7703 9.38002-9.88976 9.38002-8.01831 9.74429-6.58408 10.4728-5.59141 11.2014-4.59423 12.244-4.09798 13.6055-4.09798ZM9.38002-16.9202C10.2543-18.0858 11.2195-18.9419 12.276-19.4882 13.3415-20.0347 14.5709-20.3078 15.955-20.3078 18.3957-20.3078 20.3991-19.3334 21.9654-17.3937 23.5409-15.4494 24.333-12.9496 24.333-9.88979 24.333-6.83904 23.5407-4.34384 21.9654-2.40407 20.399-0.459758 18.3955 0.510067 15.955 0.510067 14.5708 0.510067 13.3414 0.236861 12.276-0.309528 11.2196-0.855929 10.2543-1.70284 9.38002-2.8594L9.38002 6.99393e-05 3.04178 6.99393e-05 3.04178-27.5571 9.38002-27.5571Z" stroke="#000000" stroke-width="12.2241" fill="#E61A1A" transform="matrix(1.00006 0 0 1 813.698 794.575)"/><path d="M0.437121-19.8348 6.77537-19.8348 12.1119-6.37497 16.6469-19.8348 22.9852-19.8348 14.6435 1.87554C13.8058 4.08387 12.8267 5.62755 11.7112 6.50179 10.5911 7.38513 9.12486 7.83134 7.30364 7.83134L3.6246 7.83134 3.6246 3.66051 5.60983 3.66051C6.68897 3.66051 7.4722 3.48748 7.95932 3.15053 8.44197 2.80903 8.82446 2.19433 9.10677 1.31101L9.27069 0.764611Z" stroke="#000000" stroke-width="12.2241" fill="#E61A1A" transform="matrix(1.00006 0 0 1 839.658 794.575)"/><path d="M-0.34606-26.4277 7.10317-26.4277 13.1135-17.0114 19.1422-26.4277 26.6096-26.4277 16.5376-11.1285 16.5376-0.000116565 9.72578-0.000116565 9.72578-11.1285Z" stroke="#000000" stroke-width="12.2241" fill="#E61A1A" transform="matrix(1.00006 0 0 1 875.924 794.575)"/><path d="M12.476-15.7725C11.0782-15.7725 10.0081-15.267 9.27045-14.2607 8.52826-13.2499 8.15944-11.7928 8.15944-9.88953 8.15944-7.99534 8.52827-6.54282 9.27045-5.53651 10.0081-4.52567 11.0782-4.02477 12.476-4.02477 13.8602-4.02477 14.9167-4.52564 15.6452-5.53651 16.3828-6.5428 16.7562-7.99534 16.7562-9.88953 16.7562-11.7928 16.3828-13.2499 15.6452-14.2607 14.9167-15.267 13.8603-15.7725 12.476-15.7725ZM12.476-20.3076C15.8865-20.3076 18.5501-19.3832 20.4717-17.5391 22.3886-15.7042 23.3495-13.1543 23.3495-9.88953 23.3495-6.63386 22.3887-4.08399 20.4717-2.23992 18.5502-0.404948 15.8865 0.510324 12.476 0.510324 9.05189 0.510324 6.3745-0.404902 4.44394-2.23992 2.52248-4.08399 1.56617-6.63386 1.56617-9.88953 1.56617-13.1543 2.52237-15.7042 4.44394-17.5391 6.3745-19.3832 9.05189-20.3076 12.476-20.3076Z" stroke="#000000" stroke-width="12.2241" fill="#E61A1A" transform="matrix(1.00006 0 0 1 902.184 794.575)"/><path d="M9.96273-25.4626 9.96273-19.8347 16.5014-19.8347 16.5014-15.2996 9.96273-15.2996 9.96273-6.88494C9.96273-5.96061 10.1449-5.33683 10.5091-5.00894 10.8825-4.6902 11.611-4.53539 12.6947-4.53539L15.9549-4.53539 15.9549-0.000291414 10.5091-0.000291414C8.00484-0.000291414 6.23351-0.519369 5.19084-1.5667 4.14356-2.60941 3.62443-4.38071 3.62443-6.885L3.62443-15.2996 0.473547-15.2996 0.473547-19.8347 3.62443-19.8347 3.62443-25.4626Z" stroke="#000000" stroke-width="12.2241" fill="#E61A1A" transform="matrix(1.00006 0 0 1 927.101 794.575)"/><path d="M22.8398-9.96273 22.8398-8.15958 8.01388-8.15958C8.16869-6.67524 8.71054-5.55959 9.63484-4.80833 10.5546-4.06613 11.8432-3.69732 13.4961-3.69732 14.8302-3.69732 16.1962-3.88855 17.594-4.28014 18.9874-4.68084 20.4262-5.28188 21.9106-6.0833L21.9106-1.20212C20.4034-0.628393 18.8963-0.204934 17.3937 0.0728767 15.9002 0.36429 14.4067 0.509997 12.9131 0.509997 9.31603 0.509997 6.52475-0.400671 4.53498-2.22206 2.5543-4.0434 1.56617-6.59782 1.56617-9.88986 1.56617-13.1318 2.53603-15.6726 4.48031-17.5213 6.43372-19.3791 9.12475-20.3079 12.5489-20.3079 15.6679-20.3079 18.1631-19.3654 20.0346-17.4848 21.9015-15.6134 22.8394-13.1045 22.8394-9.96271ZM16.3194-12.0755C16.3194-13.2775 15.9642-14.2474 15.2631-14.9896 14.5709-15.7272 13.6512-16.1006 12.5128-16.1006 11.2834-16.1006 10.2908-15.7545 9.52579-15.0625 8.76077-14.3704 8.27819-13.3732 8.08691-12.0755Z" stroke="#000000" stroke-width="12.2241" fill="#E61A1A" transform="matrix(1.00006 0 0 1 944.437 794.575)"/><path d="M0.437121-19.8348 6.77537-19.8348 12.1119-6.37497 16.6469-19.8348 22.9852-19.8348 14.6435 1.87554C13.8058 4.08387 12.8267 5.62755 11.7112 6.50179 10.5911 7.38513 9.12486 7.83134 7.30364 7.83134L3.6246 7.83134 3.6246 3.66051 5.60983 3.66051C6.68897 3.66051 7.4722 3.48748 7.95932 3.15053 8.44197 2.80903 8.82446 2.19433 9.10677 1.31101L9.27069 0.764611Z" stroke="#000000" stroke-width="12.2241" fill="#E61A1A" transform="matrix(1.00006 0 0 1 969.036 794.575)"/><path d="M12.476-15.7725C11.0782-15.7725 10.0081-15.267 9.27045-14.2607 8.52826-13.2499 8.15944-11.7928 8.15944-9.88953 8.15944-7.99534 8.52827-6.54282 9.27045-5.53651 10.0081-4.52567 11.0782-4.02477 12.476-4.02477 13.8602-4.02477 14.9167-4.52564 15.6452-5.53651 16.3828-6.5428 16.7562-7.99534 16.7562-9.88953 16.7562-11.7928 16.3828-13.2499 15.6452-14.2607 14.9167-15.267 13.8603-15.7725 12.476-15.7725ZM12.476-20.3076C15.8865-20.3076 18.5501-19.3832 20.4717-17.5391 22.3886-15.7042 23.3495-13.1543 23.3495-9.88953 23.3495-6.63386 22.3887-4.08399 20.4717-2.23992 18.5502-0.404948 15.8865 0.510324 12.476 0.510324 9.05189 0.510324 6.3745-0.404902 4.44394-2.23992 2.52248-4.08399 1.56617-6.63386 1.56617-9.88953 1.56617-13.1543 2.52237-15.7042 4.44394-17.5391 6.3745-19.3832 9.05189-20.3076 12.476-20.3076Z" stroke="#000000" stroke-width="12.2241" fill="#E61A1A" transform="matrix(1.00006 0 0 1 992.678 794.575)"/><path d="M16.1-27.5572 16.1-23.3864 12.5849-23.3864C11.6834-23.3864 11.0595-23.2225 10.7089-22.8946 10.3537-22.5759 10.1807-22.0204 10.1807-21.219L10.1807-19.8348 15.59-19.8348 15.59-15.2997 10.1807-15.2997 10.1807-0.000489575 3.84244-0.000489575 3.84244-15.2997 0.69156-15.2997 0.69156-19.8348 3.84244-19.8348 3.84244-21.219C3.84244-23.3773 4.44348-24.9756 5.64559-26.0091 6.84762-27.0382 8.70998-27.5572 11.2371-27.5572Z" stroke="#000000" stroke-width="12.2241" fill="#E61A1A" transform="matrix(1.00006 0 0 1 639.604 830.842)"/><path d="M17.7762-14.425C17.2161-14.6891 16.6652-14.8848 16.1188-15.0078 15.5724-15.1262 15.0169-15.1899 14.4613-15.1899 12.8313-15.1899 11.5745-14.6663 10.6912-13.6236 9.81691-12.5762 9.37979-11.0828 9.37979-9.14299L9.37979 0.000174848 3.04154 0.000174848 3.04154-19.8347 9.37979-19.8347 9.37979-16.5744C10.1903-17.8721 11.1283-18.8193 12.1846-19.4157 13.241-20.0076 14.5068-20.3082 15.9912-20.3082 16.1961-20.3082 16.4192-20.2945 16.665-20.2717 16.9201-20.258 17.2843-20.2217 17.7578-20.1624Z" stroke="#000000" stroke-width="12.2241" fill="#E61A1A" transform="matrix(1.00006 0 0 1 655.382 830.842)"/><path d="M12.476-15.7725C11.0782-15.7725 10.0081-15.267 9.27045-14.2607 8.52826-13.2499 8.15944-11.7928 8.15944-9.88953 8.15944-7.99534 8.52827-6.54282 9.27045-5.53651 10.0081-4.52567 11.0782-4.02477 12.476-4.02477 13.8602-4.02477 14.9167-4.52564 15.6452-5.53651 16.3828-6.5428 16.7562-7.99534 16.7562-9.88953 16.7562-11.7928 16.3828-13.2499 15.6452-14.2607 14.9167-15.267 13.8603-15.7725 12.476-15.7725ZM12.476-20.3076C15.8865-20.3076 18.5501-19.3832 20.4717-17.5391 22.3886-15.7042 23.3495-13.1543 23.3495-9.88953 23.3495-6.63386 22.3887-4.08399 20.4717-2.23992 18.5502-0.404948 15.8865 0.510324 12.476 0.510324 9.05189 0.510324 6.3745-0.404902 4.44394-2.23992 2.52248-4.08399 1.56617-6.63386 1.56617-9.88953 1.56617-13.1543 2.52237-15.7042 4.44394-17.5391 6.3745-19.3832 9.05189-20.3076 12.476-20.3076Z" stroke="#000000" stroke-width="12.2241" fill="#E61A1A" transform="matrix(1.00006 0 0 1 673.269 830.842)"/><path d="M21.4189-16.5383C22.2203-17.7632 23.1719-18.6966 24.2784-19.3431 25.3803-19.9852 26.596-20.3084 27.921-20.3084 30.2022-20.3084 31.9371-19.6027 33.1301-18.1956 34.3185-16.7978 34.915-14.7579 34.915-12.076L34.915-0.000955837 28.5402-0.000955837 28.5402-10.3461C28.5493-10.4918 28.5584-10.6467 28.5584-10.8197 28.5675-10.9882 28.5767-11.2249 28.5767-11.53 28.5767-12.9369 28.3673-13.9569 27.9574-14.5898 27.543-15.2182 26.8737-15.5369 25.9539-15.5369 24.7519-15.5369 23.823-15.0361 23.1673-14.0436 22.5116-13.0464 22.1701-11.6121 22.1473-9.74517L22.1473-0.000990807 15.7726-0.000990807 15.7726-10.3462C15.7726-12.5408 15.5813-13.957 15.2079-14.5898 14.83-15.2182 14.1562-15.5369 13.1862-15.5369 11.9705-15.5369 11.0279-15.0316 10.3632-14.0253 9.70748-13.0281 9.37964-11.6074 9.37964-9.76335L9.37964-0.000990807 3.00491-0.000990807 3.00491-19.8357 9.37964-19.8357 9.37964-16.9217C10.1537-18.0509 11.0462-18.8933 12.0571-19.4533 13.077-20.0225 14.1925-20.3093 15.4083-20.3093 16.7789-20.3093 17.9855-19.9724 19.0328-19.3076 20.0891-18.6519 20.8814-17.7276 21.4188-16.5392Z" stroke="#000000" stroke-width="12.2241" fill="#E61A1A" transform="matrix(1.00006 0 0 1 698.182 830.842)"/><path d="M9.96273-25.4626 9.96273-19.8347 16.5014-19.8347 16.5014-15.2996 9.96273-15.2996 9.96273-6.88494C9.96273-5.96061 10.1449-5.33683 10.5091-5.00894 10.8825-4.6902 11.611-4.53539 12.6947-4.53539L15.9549-4.53539 15.9549-0.000291414 10.5091-0.000291414C8.00484-0.000291414 6.23351-0.519369 5.19084-1.5667 4.14356-2.60941 3.62443-4.38071 3.62443-6.885L3.62443-15.2996 0.473547-15.2996 0.473547-19.8347 3.62443-19.8347 3.62443-25.4626Z" stroke="#000000" stroke-width="12.2241" fill="#E61A1A" transform="matrix(1.00006 0 0 1 748.599 830.842)"/><path d="M22.9855-12.075 22.9855 0 16.6108 0 16.6108-9.2159C16.6108-10.9371 16.5652-12.1209 16.4833-12.7675 16.4104-13.4232 16.2829-13.9059 16.1008-14.2246 15.8459-14.6344 15.5044-14.9577 15.0809-15.1899 14.6529-15.4175 14.1748-15.536 13.642-15.536 12.317-15.536 11.2743-15.0169 10.5093-13.9879 9.75345-12.9679 9.38008-11.5564 9.38008-9.76236L9.38008 0 3.04183 0 3.04183-27.5572 9.38008-27.5572 9.38008-16.9206C10.3363-18.0863 11.3517-18.9424 12.4218-19.4887 13.5008-20.0352 14.6893-20.3083 15.9916-20.3083 18.2728-20.3083 20.0075-19.6025 21.2006-18.1955 22.3891-16.7977 22.9855-14.7578 22.9855-12.0758Z" stroke="#000000" stroke-width="12.2241" fill="#E61A1A" transform="matrix(1.00006 0 0 1 765.935 830.842)"/><path d="M22.8398-9.96273 22.8398-8.15958 8.01388-8.15958C8.16869-6.67524 8.71054-5.55959 9.63484-4.80833 10.5546-4.06613 11.8432-3.69732 13.4961-3.69732 14.8302-3.69732 16.1962-3.88855 17.594-4.28014 18.9874-4.68084 20.4262-5.28188 21.9106-6.0833L21.9106-1.20212C20.4034-0.628393 18.8963-0.204934 17.3937 0.0728767 15.9002 0.36429 14.4067 0.509997 12.9131 0.509997 9.31603 0.509997 6.52475-0.400671 4.53498-2.22206 2.5543-4.0434 1.56617-6.59782 1.56617-9.88986 1.56617-13.1318 2.53603-15.6726 4.48031-17.5213 6.43372-19.3791 9.12475-20.3079 12.5489-20.3079 15.6679-20.3079 18.1631-19.3654 20.0346-17.4848 21.9015-15.6134 22.8394-13.1045 22.8394-9.96271ZM16.3194-12.0755C16.3194-13.2775 15.9642-14.2474 15.2631-14.9896 14.5709-15.7272 13.6512-16.1006 12.5128-16.1006 11.2834-16.1006 10.2908-15.7545 9.52579-15.0625 8.76077-14.3704 8.27819-13.3732 8.08691-12.0755Z" stroke="#000000" stroke-width="12.2241" fill="#E61A1A" transform="matrix(1.00006 0 0 1 791.755 830.842)"/><path d="M3.33307-26.4277 10.9462-26.4277 20.5628-8.30529 20.5628-26.4277 27.0286-26.4277 27.0286 0 19.3972 0 9.79873-18.1399 9.79873 0 3.33296 0Z" stroke="#000000" stroke-width="12.2241" fill="#E61A1A" transform="matrix(1.00006 0 0 1 828.98 830.842)"/><path d="M12.476-15.7725C11.0782-15.7725 10.0081-15.267 9.27045-14.2607 8.52826-13.2499 8.15944-11.7928 8.15944-9.88953 8.15944-7.99534 8.52827-6.54282 9.27045-5.53651 10.0081-4.52567 11.0782-4.02477 12.476-4.02477 13.8602-4.02477 14.9167-4.52564 15.6452-5.53651 16.3828-6.5428 16.7562-7.99534 16.7562-9.88953 16.7562-11.7928 16.3828-13.2499 15.6452-14.2607 14.9167-15.267 13.8603-15.7725 12.476-15.7725ZM12.476-20.3076C15.8865-20.3076 18.5501-19.3832 20.4717-17.5391 22.3886-15.7042 23.3495-13.1543 23.3495-9.88953 23.3495-6.63386 22.3887-4.08399 20.4717-2.23992 18.5502-0.404948 15.8865 0.510324 12.476 0.510324 9.05189 0.510324 6.3745-0.404902 4.44394-2.23992 2.52248-4.08399 1.56617-6.63386 1.56617-9.88953 1.56617-13.1543 2.52237-15.7042 4.44394-17.5391 6.3745-19.3832 9.05189-20.3076 12.476-20.3076Z" stroke="#000000" stroke-width="12.2241" fill="#E61A1A" transform="matrix(1.00006 0 0 1 859.329 830.842)"/><path d="M2.84128-7.72246 2.84128-19.8348 9.21602-19.8348 9.21602-17.8496C9.21602-16.7658 9.20691-15.4136 9.19781-13.7879 9.18415-12.1715 9.17959-11.0924 9.17959-10.546 9.17959-8.95234 9.21602-7.80487 9.28887-7.10373 9.37083-6.39796 9.51653-5.88796 9.72599-5.57381 9.98098-5.15946 10.3134-4.83617 10.7277-4.60851 11.1512-4.38995 11.6384-4.28067 12.1848-4.28067 13.5053-4.28067 14.5434-4.78154 15.2993-5.79241 16.0506-6.81236 16.4285-8.22385 16.4285-10.0361L16.4285-19.8348 22.7668-19.8348 22.7668-3.49696e-05 16.4285-3.49696e-05 16.4285-2.8595C15.4678-1.70295 14.4524-0.855975 13.3868-0.309633 12.3169 0.236768 11.1375 0.509962 9.85355 0.509962 7.56782 0.509962 5.82843-0.186703 4.62629-1.5846 3.43335-2.99155 2.84143-5.03599 2.84143-7.72247Z" stroke="#000000" stroke-width="12.2241" fill="#E61A1A" transform="matrix(1.00006 0 0 1 884.247 830.842)"/><path d="M22.9855-12.075 22.9855 0 16.6108 0 16.6108-9.2342C16.6108-10.9463 16.5652-12.1211 16.4833-12.7675 16.4104-13.4232 16.2829-13.9059 16.1008-14.2246 15.8459-14.6344 15.5044-14.9577 15.0809-15.1899 14.6529-15.4175 14.1748-15.536 13.642-15.536 12.317-15.536 11.2743-15.0169 10.5093-13.9879 9.75345-12.9679 9.38008-11.5564 9.38008-9.76236L9.38008 0 3.04183 0 3.04183-19.8348 9.38008-19.8348 9.38008-16.9206C10.3363-18.0863 11.3517-18.9424 12.4218-19.4887 13.5008-20.0352 14.6893-20.3083 15.9916-20.3083 18.2728-20.3083 20.0075-19.6025 21.2006-18.1955 22.3891-16.7977 22.9855-14.7578 22.9855-12.0758Z" stroke="#000000" stroke-width="12.2241" fill="#E61A1A" transform="matrix(1.00006 0 0 1 910.067 830.842)"/><path d="M3.33307-26.4277 14.6435-26.4277C18.0039-26.4277 20.5857-25.681 22.3842-24.1875 24.1919-22.694 25.0979-20.5675 25.0979-17.8127 25.0979-15.0443 24.1919-12.9134 22.3842-11.4198 20.5856-9.92637 18.0039-9.17953 14.6435-9.17953L10.1448-9.17953 10.1448-1.03531e-15 3.33296-1.03531e-15ZM10.1449-21.4919 10.1449-14.1155 13.9151-14.1155C15.2356-14.1155 16.2555-14.4342 16.975-15.0808 17.7035-15.7228 18.0678-16.6334 18.0678-17.8128 18.0678-18.9876 17.7035-19.8938 16.975-20.5266 16.2555-21.1686 15.2356-21.4919 13.9151-21.4919Z" stroke="#000000" stroke-width="12.2241" fill="#E61A1A" transform="matrix(1.00006 0 0 1 948.512 830.842)"/><path d="M17.7762-14.425C17.2161-14.6891 16.6652-14.8848 16.1188-15.0078 15.5724-15.1262 15.0169-15.1899 14.4613-15.1899 12.8313-15.1899 11.5745-14.6663 10.6912-13.6236 9.81691-12.5762 9.37979-11.0828 9.37979-9.14299L9.37979 0.000174848 3.04154 0.000174848 3.04154-19.8347 9.37979-19.8347 9.37979-16.5744C10.1903-17.8721 11.1283-18.8193 12.1846-19.4157 13.241-20.0076 14.5068-20.3082 15.9912-20.3082 16.1961-20.3082 16.4192-20.2945 16.665-20.2717 16.9201-20.258 17.2843-20.2217 17.7578-20.1624Z" stroke="#000000" stroke-width="12.2241" fill="#E61A1A" transform="matrix(1.00006 0 0 1 975.092 830.842)"/><path d="M12.476-15.7725C11.0782-15.7725 10.0081-15.267 9.27045-14.2607 8.52826-13.2499 8.15944-11.7928 8.15944-9.88953 8.15944-7.99534 8.52827-6.54282 9.27045-5.53651 10.0081-4.52567 11.0782-4.02477 12.476-4.02477 13.8602-4.02477 14.9167-4.52564 15.6452-5.53651 16.3828-6.5428 16.7562-7.99534 16.7562-9.88953 16.7562-11.7928 16.3828-13.2499 15.6452-14.2607 14.9167-15.267 13.8603-15.7725 12.476-15.7725ZM12.476-20.3076C15.8865-20.3076 18.5501-19.3832 20.4717-17.5391 22.3886-15.7042 23.3495-13.1543 23.3495-9.88953 23.3495-6.63386 22.3887-4.08399 20.4717-2.23992 18.5502-0.404948 15.8865 0.510324 12.476 0.510324 9.05189 0.510324 6.3745-0.404902 4.44394-2.23992 2.52248-4.08399 1.56617-6.63386 1.56617-9.88953 1.56617-13.1543 2.52237-15.7042 4.44394-17.5391 6.3745-19.3832 9.05189-20.3076 12.476-20.3076Z" stroke="#000000" stroke-width="12.2241" fill="#E61A1A" transform="matrix(1.00006 0 0 1 992.979 830.842)"/><path d="M3.04166-19.8348 9.37991-19.8348 9.37991-0.346199C9.37991 2.29925 8.74243 4.32097 7.46753 5.71882 6.19254 7.12576 4.34393 7.83157 1.93067 7.83157L-1.20202 7.83157-1.20202 3.66074-0.109222 3.66074C1.0928 3.66074 1.91704 3.38753 2.36779 2.84114 2.81402 2.30385 3.04168 1.24291 3.04168-0.346223ZM3.04166-27.5572 9.37991-27.5572 9.37991-22.3847 3.04166-22.3847Z" stroke="#000000" stroke-width="12.2241" fill="#E61A1A" transform="matrix(1.00006 0 0 1 1017.89 830.842)"/><path d="M22.8398-9.96273 22.8398-8.15958 8.01388-8.15958C8.16869-6.67524 8.71054-5.55959 9.63484-4.80833 10.5546-4.06613 11.8432-3.69732 13.4961-3.69732 14.8302-3.69732 16.1962-3.88855 17.594-4.28014 18.9874-4.68084 20.4262-5.28188 21.9106-6.0833L21.9106-1.20212C20.4034-0.628393 18.8963-0.204934 17.3937 0.0728767 15.9002 0.36429 14.4067 0.509997 12.9131 0.509997 9.31603 0.509997 6.52475-0.400671 4.53498-2.22206 2.5543-4.0434 1.56617-6.59782 1.56617-9.88986 1.56617-13.1318 2.53603-15.6726 4.48031-17.5213 6.43372-19.3791 9.12475-20.3079 12.5489-20.3079 15.6679-20.3079 18.1631-19.3654 20.0346-17.4848 21.9015-15.6134 22.8394-13.1045 22.8394-9.96271ZM16.3194-12.0755C16.3194-13.2775 15.9642-14.2474 15.2631-14.9896 14.5709-15.7272 13.6512-16.1006 12.5128-16.1006 11.2834-16.1006 10.2908-15.7545 9.52579-15.0625 8.76077-14.3704 8.27819-13.3732 8.08691-12.0755Z" stroke="#000000" stroke-width="12.2241" fill="#E61A1A" transform="matrix(1.00006 0 0 1 1030.32 830.842)"/><path d="M19.0689-19.2147 19.0689-14.0421C18.2038-14.634 17.3386-15.0711 16.4644-15.3534 15.5993-15.6312 14.7023-15.7724 13.7688-15.7724 12.0067-15.7724 10.627-15.2533 9.63437-14.2243 8.65085-13.1907 8.15912-11.7472 8.15912-9.88939 8.15912-8.04078 8.65088-6.6019 9.63437-5.57286 10.627-4.53925 12.0067-4.02475 13.7688-4.02475 14.7615-4.02475 15.7041-4.17046 16.5919-4.46187 17.4889-4.75328 18.3131-5.1904 19.0689-5.77323L19.0689-0.582454C18.0717-0.218187 17.0654 0.0550189 16.0455 0.237141 15.0255 0.419263 14.0056 0.510347 12.9856 0.510347 9.40217 0.510347 6.6018-0.404879 4.5893-2.2399 2.57213-4.07033 1.56582-6.6202 1.56582-9.88951 1.56582-13.1679 2.57211-15.7224 4.5893-17.5573 6.60192-19.3878 9.40217-20.3076 12.9856-20.3076 14.0147-20.3076 15.0346-20.2165 16.0455-20.0343 17.0518-19.8523 18.0581-19.579 19.0689-19.2148Z" stroke="#000000" stroke-width="12.2241" fill="#E61A1A" transform="matrix(1.00006 0 0 1 1054.92 830.842)"/><path d="M9.96273-25.4626 9.96273-19.8347 16.5014-19.8347 16.5014-15.2996 9.96273-15.2996 9.96273-6.88494C9.96273-5.96061 10.1449-5.33683 10.5091-5.00894 10.8825-4.6902 11.611-4.53539 12.6947-4.53539L15.9549-4.53539 15.9549-0.000291414 10.5091-0.000291414C8.00484-0.000291414 6.23351-0.519369 5.19084-1.5667 4.14356-2.60941 3.62443-4.38071 3.62443-6.885L3.62443-15.2996 0.473547-15.2996 0.473547-19.8347 3.62443-19.8347 3.62443-25.4626Z" stroke="#000000" stroke-width="12.2241" fill="#E61A1A" transform="matrix(1.00006 0 0 1 1076.42 830.842)"/></g></svg>