<svg width="2819" height="1805" xmlns="http://www.w3.org/2000/svg" xmlns:xlink="http://www.w3.org/1999/xlink" xml:space="preserve" overflow="hidden"><defs><clipPath id="clip0"><rect x="0" y="0" width="2819" height="1805"/></clipPath><clipPath id="clip1"><rect x="0" y="23" width="2819" height="1762"/></clipPath><clipPath id="clip2"><rect x="0" y="23" width="2819" height="1762"/></clipPath><clipPath id="clip3"><rect x="2" y="0" width="2806" height="1806"/></clipPath><clipPath id="clip4"><rect x="2" y="0" width="2806" height="1806"/></clipPath><clipPath id="clip5"><rect x="2" y="-289" width="2806" height="2806"/></clipPath></defs><g clip-path="url(#clip0)"><g clip-path="url(#clip1)"><g clip-path="url(#clip2)"><path d="M1881.76 299.369C1976.25 299.369 2052.83 375.953 2052.83 470.438L2052.83 898.131 2489.52 679.772C2603.26 622.907 2737.09 705.615 2737.09 832.788L2737.09 1476.67C2737.09 1603.84 2603.26 1686.55 2489.52 1629.69L2052.83 1411.33 2052.83 1839.02C2052.83 1933.51 1976.25 2010.09 1881.76 2010.09L171.069 2010.09C76.5843 2010.09 0 1933.51 0 1839.02L0 470.47C0 375.985 76.5843 299.4 171.069 299.4ZM727.054 1525.08 1368.55 1154.7 727.054 784.322Z" stroke="#000000" stroke-width="26.8344" fill="#3091FC" fill-rule="evenodd" transform="matrix(1.02992 0 0 1 0 -258.785)"/></g></g><g clip-path="url(#clip3)"><g clip-path="url(#clip4)"><g clip-path="url(#clip5)"><path d="M1928.44 306.795C2025.27 306.795 2103.75 385.279 2103.75 482.107L2103.75 920.409 2551.27 696.634C2667.84 638.358 2804.98 723.117 2804.98 853.445L2804.98 1513.3C2804.98 1643.63 2667.83 1728.39 2551.27 1670.11L2103.75 1446.34 2103.75 1884.64C2103.75 1981.47 2025.27 2059.95 1928.44 2059.95L175.312 2059.95C78.4839 2059.95 0 1981.47 0 1884.64L0 482.139C0 385.311 78.4839 306.827 175.312 306.827ZM745.088 1562.91 1402.5 1183.35 745.088 803.777Z" stroke="#000000" stroke-width="27.5" fill="#3091FC" fill-rule="evenodd" transform="matrix(1 0 0 1.00018 3 -288.826)"/></g></g></g></g></svg>