<svg width="816" height="522" xmlns="http://www.w3.org/2000/svg" xmlns:xlink="http://www.w3.org/1999/xlink" xml:space="preserve" overflow="hidden"><defs><clipPath id="clip0"><rect x="0" y="0" width="816" height="522"/></clipPath><clipPath id="clip1"><rect x="0" y="6" width="816" height="511"/></clipPath><clipPath id="clip2"><rect x="0" y="6" width="816" height="511"/></clipPath><clipPath id="clip3"><rect x="0" y="0" width="813" height="523"/></clipPath><clipPath id="clip4"><rect x="0" y="0" width="813" height="523"/></clipPath><clipPath id="clip5"><rect x="0" y="-84" width="813" height="812"/></clipPath></defs><g clip-path="url(#clip0)"><g clip-path="url(#clip1)"><g clip-path="url(#clip2)"><path d="M544.199 86.5765C571.525 86.5765 593.672 108.724 593.672 136.049L593.672 259.736 719.961 196.588C752.854 180.143 791.557 204.062 791.557 240.84L791.557 427.048C791.557 463.825 752.854 487.745 719.961 471.301L593.672 408.152 593.672 531.838C593.672 559.165 571.525 581.311 544.199 581.311L49.4726 581.311C22.1479 581.311 0 559.165 0 531.838L0 136.058C0 108.734 22.1479 86.5855 49.4726 86.5855ZM210.262 441.048 395.78 333.935 210.262 226.823Z" stroke="#000000" stroke-width="7.76042" fill="#095DD9" fill-rule="evenodd" transform="matrix(1.03087 0 0 1 0 -74.8398)"/></g></g><g clip-path="url(#clip3)"><g clip-path="url(#clip4)"><g clip-path="url(#clip5)"><path d="M557.799 88.7401C585.807 88.7401 608.507 111.441 608.507 139.449L608.507 266.227 737.952 201.5C771.669 184.644 811.337 209.161 811.337 246.858L811.337 437.72C811.337 475.418 771.667 499.935 737.952 483.077L608.507 418.352 608.507 545.13C608.507 573.138 585.807 595.838 557.799 595.838L50.7088 595.838C22.7014 595.838 0 573.138 0 545.13L0 139.458C0 111.451 22.7014 88.7493 50.7088 88.7493ZM215.516 452.07 405.671 342.282 215.516 232.491Z" stroke="#000000" stroke-width="7.95434" fill="#095DD9" fill-rule="evenodd" transform="matrix(1.00075 0 0 1 0.868393 -83.5275)"/></g></g></g></g></svg>