<svg width="1124" height="725" xmlns="http://www.w3.org/2000/svg" xmlns:xlink="http://www.w3.org/1999/xlink" xml:space="preserve" overflow="hidden"><g transform="translate(-37 21)"><g><g><path d="M752.716 119.75C790.512 119.75 821.145 150.384 821.145 188.178L821.145 359.258 995.823 271.913C1041.32 249.167 1094.85 282.25 1094.85 333.121L1094.85 590.678C1094.85 641.546 1041.32 674.631 995.823 651.886L821.145 564.54 821.145 735.62C821.145 773.416 790.512 804.049 752.716 804.049L68.4287 804.049C30.6342 804.049 0 773.416 0 735.62L0 188.191C0 150.396 30.6342 119.762 68.4287 119.762ZM290.826 610.041 547.429 461.887 290.826 313.734Z" stroke="#000000" stroke-width="10.7339" fill="#3091FC" fill-rule="evenodd" transform="matrix(1.02661 0 0 1 37 -121.015)"/><path d="M768.913 122.326C807.522 122.326 838.813 153.62 838.813 192.227L838.813 366.988 1017.25 277.764C1063.73 254.528 1118.41 288.323 1118.41 340.288L1118.41 603.387C1118.41 655.353 1063.73 689.149 1017.25 665.911L838.813 576.689 838.813 751.449C838.813 790.058 807.522 821.349 768.913 821.349L69.9009 821.349C31.2933 821.349 0 790.058 0 751.449L0 192.24C0 153.632 31.2933 122.339 69.9009 122.339ZM297.084 623.168 559.209 471.829 297.084 320.484Z" stroke="#000000" stroke-width="10.9649" fill="#3091FC" fill-rule="evenodd" transform="matrix(1 0 0 1.0034 38.1962 -133.031)"/></g></g></g></svg>