<?xml version="1.0" encoding="UTF-8"?>
<!DOCTYPE svg PUBLIC "-//W3C//DTD SVG 1.1//EN" "http://www.w3.org/Graphics/SVG/1.1/DTD/svg11.dtd">
<svg xmlns="http://www.w3.org/2000/svg" version="1.1" width="124px" height="192px" style="shape-rendering:geometricPrecision; text-rendering:geometricPrecision; image-rendering:optimizeQuality; fill-rule:evenodd; clip-rule:evenodd" xmlns:xlink="http://www.w3.org/1999/xlink">
<g><path style="opacity:1" fill="#fde93d" d="M 82.5,43.5 C 83.5036,48.5157 84.6702,53.5157 86,58.5C 88.0387,64.1492 90.5387,69.4825 93.5,74.5C 93.5,75.8333 93.5,77.1667 93.5,78.5C 93.5,80.1667 93.5,81.8333 93.5,83.5C 90.3429,83.9215 88.0095,82.7548 86.5,80C 82.6272,79.7297 78.7938,79.2297 75,78.5C 73.6898,79.1301 72.8565,80.1301 72.5,81.5C 72.5,82.1667 72.5,82.8333 72.5,83.5C 71.8335,88.0166 71.1669,92.6833 70.5,97.5C 68.8969,94.6266 67.5636,91.6266 66.5,88.5C 66.0431,87.7025 65.3764,87.3691 64.5,87.5C 64.7394,85.5328 64.4061,83.6995 63.5,82C 60.1832,81.5017 56.8499,81.335 53.5,81.5C 53.5,82.5 53.5,83.5 53.5,84.5C 50.8906,84.1699 49.2239,82.6699 48.5,80C 43.8333,79.3333 39.1667,79.3333 34.5,80C 32.9632,81.1096 32.2965,82.6096 32.5,84.5C 30.1824,86.1852 29.1824,88.5185 29.5,91.5C 28.5,91.5 27.5,91.5 26.5,91.5C 26.5,89.8333 26.5,88.1667 26.5,86.5C 27.5689,78.0364 30.5689,70.3698 35.5,63.5C 35.6844,58.4406 37.5178,54.1072 41,50.5C 42.2161,43.1992 41.3828,36.1992 38.5,29.5C 38.8333,28.5 39.1667,27.5 39.5,26.5C 41.8069,25.009 44.3069,24.009 47,23.5C 47.6514,21.765 47.4847,20.0983 46.5,18.5C 48.0453,17.5481 49.712,17.2148 51.5,17.5C 51.3398,15.8008 51.5065,14.1341 52,12.5C 53.7172,11.0118 54.8839,9.1785 55.5,7C 66.0964,5.06861 71.2631,9.56861 71,20.5C 75.4322,28.0309 79.2655,35.6976 82.5,43.5 Z"/></g>
<g><path style="opacity:1" fill="#f3e871" d="M 82.5,43.5 C 79.2655,35.6976 75.4322,28.0309 71,20.5C 71.2631,9.56861 66.0964,5.06861 55.5,7C 54.8839,9.1785 53.7172,11.0118 52,12.5C 51.5065,14.1341 51.3398,15.8008 51.5,17.5C 49.712,17.2148 48.0453,17.5481 46.5,18.5C 47.4847,20.0983 47.6514,21.765 47,23.5C 44.3069,24.009 41.8069,25.009 39.5,26.5C 39.1667,27.5 38.8333,28.5 38.5,29.5C 41.3828,36.1992 42.2161,43.1992 41,50.5C 37.5178,54.1072 35.6844,58.4406 35.5,63.5C 30.5689,70.3698 27.5689,78.0364 26.5,86.5C 25.596,87.209 25.2627,88.209 25.5,89.5C 24.5416,89.9528 23.7083,90.6195 23,91.5C 21.0615,95.7163 18.8949,99.7163 16.5,103.5C 24.061,82.3187 31.7277,61.152 39.5,40C 35.5447,32.2878 35.5447,24.6211 39.5,17C 42.5128,15.3351 45.6795,14.1684 49,13.5C 49.6145,5.7155 53.7812,2.04883 61.5,2.5C 64.0571,2.44225 66.3904,3.10892 68.5,4.5C 73.4525,17.4035 78.1192,30.4035 82.5,43.5 Z"/></g>
<g><path style="opacity:0.455" fill="#ede694" d="M 82.5,43.5 C 86.9759,53.4712 90.6426,63.8045 93.5,74.5C 90.5387,69.4825 88.0387,64.1492 86,58.5C 84.6702,53.5157 83.5036,48.5157 82.5,43.5 Z"/></g>
<g><path style="opacity:1" fill="#1a1407" d="M 64.5,87.5 C 66.4185,91.6813 68.0851,96.0147 69.5,100.5C 66.1674,102.252 64.5007,101.252 64.5,97.5C 61.1501,97.335 57.8168,97.5017 54.5,98C 53.7476,98.6708 53.4142,99.5041 53.5,100.5C 52.0813,101.451 50.4147,101.784 48.5,101.5C 48.5,100.167 48.5,98.8333 48.5,97.5C 49.7498,97.4226 50.5831,96.756 51,95.5C 52.3769,91.2547 53.8769,87.0881 55.5,83C 57.8333,82.3333 60.1667,82.3333 62.5,83C 63.0989,84.6225 63.7656,86.1225 64.5,87.5 Z"/></g>
<g><path style="opacity:1" fill="#635b25" d="M 72.5,81.5 C 77.0323,81.1818 81.3656,81.5151 85.5,82.5C 81.5,82.5 77.5,82.5 73.5,82.5C 73.5,88.5 73.5,94.5 73.5,100.5C 77.8333,100.5 82.1667,100.5 86.5,100.5C 82.03,101.486 77.3633,101.819 72.5,101.5C 72.5,95.5 72.5,89.5 72.5,83.5C 72.5,82.8333 72.5,82.1667 72.5,81.5 Z"/></g>
<g><path style="opacity:1" fill="#ada55f" d="M 58.5,87.5 C 60.5358,89.2057 61.5358,91.539 61.5,94.5C 59.8333,94.5 58.1667,94.5 56.5,94.5C 56.1658,91.812 56.8325,89.4786 58.5,87.5 Z"/></g>
<g><path style="opacity:0.765" fill="#ede389" d="M 93.5,74.5 C 97.9156,83.7847 101.582,93.4513 104.5,103.5C 99.8326,97.6794 96.9992,91.0127 96,83.5C 95.6264,81.5087 94.793,79.842 93.5,78.5C 93.5,77.1667 93.5,75.8333 93.5,74.5 Z"/></g>
<g><path style="opacity:1" fill="#e8dd5c" d="M 64.5,87.5 C 63.7656,86.1225 63.0989,84.6225 62.5,83C 60.1667,82.3333 57.8333,82.3333 55.5,83C 53.8769,87.0881 52.3769,91.2547 51,95.5C 50.5831,96.756 49.7498,97.4226 48.5,97.5C 46.7211,95.6565 44.3878,94.9898 41.5,95.5C 41.9746,98.0821 41.3079,100.082 39.5,101.5C 39.5,98.8333 39.5,96.1667 39.5,93.5C 42.5,93.5 45.5,93.5 48.5,93.5C 48.5,92.1667 48.5,90.8333 48.5,89.5C 45.5,89.5 42.5,89.5 39.5,89.5C 39.5,88.1667 39.5,86.8333 39.5,85.5C 42.5,85.5 45.5,85.5 48.5,85.5C 48.5,84.1667 48.5,82.8333 48.5,81.5C 43.8333,81.5 39.1667,81.5 34.5,81.5C 34.5,88.1667 34.5,94.8333 34.5,101.5C 33.8826,101.389 33.3826,101.056 33,100.5C 32.5006,95.1771 32.334,89.8437 32.5,84.5C 32.2965,82.6096 32.9632,81.1096 34.5,80C 39.1667,79.3333 43.8333,79.3333 48.5,80C 49.2239,82.6699 50.8906,84.1699 53.5,84.5C 53.5,83.5 53.5,82.5 53.5,81.5C 56.8499,81.335 60.1832,81.5017 63.5,82C 64.4061,83.6995 64.7394,85.5328 64.5,87.5 Z"/></g>
<g><path style="opacity:1" fill="#272010" d="M 39.5,101.5 C 37.8333,101.5 36.1667,101.5 34.5,101.5C 34.5,94.8333 34.5,88.1667 34.5,81.5C 39.1667,81.5 43.8333,81.5 48.5,81.5C 48.5,82.8333 48.5,84.1667 48.5,85.5C 45.5,85.5 42.5,85.5 39.5,85.5C 39.5,86.8333 39.5,88.1667 39.5,89.5C 42.5,89.5 45.5,89.5 48.5,89.5C 48.5,90.8333 48.5,92.1667 48.5,93.5C 45.5,93.5 42.5,93.5 39.5,93.5C 39.5,96.1667 39.5,98.8333 39.5,101.5 Z"/></g>
<g><path style="opacity:1" fill="#c6bb58" d="M 72.5,83.5 C 72.5,89.5 72.5,95.5 72.5,101.5C 69.9039,102.265 67.2372,102.599 64.5,102.5C 63.7659,101.292 63.4326,99.9587 63.5,98.5C 59.917,98.2319 56.5836,98.8986 53.5,100.5C 53.4142,99.5041 53.7476,98.6708 54.5,98C 57.8168,97.5017 61.1501,97.335 64.5,97.5C 64.5007,101.252 66.1674,102.252 69.5,100.5C 68.0851,96.0147 66.4185,91.6813 64.5,87.5C 65.3764,87.3691 66.0431,87.7025 66.5,88.5C 67.5636,91.6266 68.8969,94.6266 70.5,97.5C 71.1669,92.6833 71.8335,88.0166 72.5,83.5 Z"/></g>
<g><path style="opacity:1" fill="#150f03" d="M 85.5,82.5 C 87.3545,83.6896 89.1879,85.0229 91,86.5C 92.6894,92.3453 91.1894,97.012 86.5,100.5C 82.1667,100.5 77.8333,100.5 73.5,100.5C 73.5,94.5 73.5,88.5 73.5,82.5C 77.5,82.5 81.5,82.5 85.5,82.5 Z"/></g>
<g><path style="opacity:1" fill="#f1e352" d="M 84.5,86.5 C 87.3324,88.4065 88.1657,91.0732 87,94.5C 86.2917,95.3805 85.4584,96.0472 84.5,96.5C 82.5,96.5 80.5,96.5 78.5,96.5C 78.5,93.1667 78.5,89.8333 78.5,86.5C 80.5,86.5 82.5,86.5 84.5,86.5 Z"/></g>
<g><path style="opacity:1" fill="#a49f49" d="M 84.5,86.5 C 82.5,86.5 80.5,86.5 78.5,86.5C 78.5,89.8333 78.5,93.1667 78.5,96.5C 80.5,96.5 82.5,96.5 84.5,96.5C 84.3893,97.1174 84.056,97.6174 83.5,98C 81.5273,98.4955 79.5273,98.6621 77.5,98.5C 77.5,94.1667 77.5,89.8333 77.5,85.5C 80.0593,85.1984 82.3926,85.5318 84.5,86.5 Z"/></g>
<g><path style="opacity:1" fill="#fee83b" d="M 32.5,84.5 C 32.334,89.8437 32.5006,95.1771 33,100.5C 33.3826,101.056 33.8826,101.389 34.5,101.5C 36.1667,101.5 37.8333,101.5 39.5,101.5C 41.3079,100.082 41.9746,98.0821 41.5,95.5C 44.3878,94.9898 46.7211,95.6565 48.5,97.5C 48.5,98.8333 48.5,100.167 48.5,101.5C 50.4147,101.784 52.0813,101.451 53.5,100.5C 56.5836,98.8986 59.917,98.2319 63.5,98.5C 63.4326,99.9587 63.7659,101.292 64.5,102.5C 65.9575,104.011 67.7908,105.011 70,105.5C 72.8817,103.404 75.715,103.737 78.5,106.5C 79.7841,105.415 81.2841,104.748 83,104.5C 85.5707,105.324 88.0707,105.324 90.5,104.5C 91.8333,102.167 93.1667,99.8333 94.5,97.5C 98.5,98.8333 101.167,101.5 102.5,105.5C 102.069,106.293 101.735,107.127 101.5,108C 104.046,115.121 106.712,122.121 109.5,129C 109.167,129.333 108.833,129.667 108.5,130C 111.239,133.598 113.239,137.598 114.5,142C 78.8349,142.5 43.1682,142.667 7.5,142.5C 11.5412,131.377 15.3746,120.044 19,108.5C 22.8464,102.8 25.0131,96.4664 25.5,89.5C 25.2627,88.209 25.596,87.209 26.5,86.5C 26.5,88.1667 26.5,89.8333 26.5,91.5C 27.5,91.5 28.5,91.5 29.5,91.5C 29.1824,88.5185 30.1824,86.1852 32.5,84.5 Z"/></g>
<g><path style="opacity:0.557" fill="#f1ea96" d="M 16.5,104.5 C 15.6325,109.237 14.4658,113.904 13,118.5C 12.124,120.758 10.9573,122.758 9.5,124.5C 11.059,117.486 13.3923,110.82 16.5,104.5 Z"/></g>
<g><path style="opacity:1" fill="#f5e039" d="M 93.5,78.5 C 94.793,79.842 95.6264,81.5087 96,83.5C 96.9992,91.0127 99.8326,97.6794 104.5,103.5C 105.699,115.263 109.199,126.263 115,136.5C 117.396,143.814 116.729,150.814 113,157.5C 107.974,162.358 103.141,167.358 98.5,172.5C 86.4622,178.72 73.6289,182.387 60,183.5C 57.1667,183.167 54.3333,182.833 51.5,182.5C 42.4694,179.803 33.4694,176.97 24.5,174C 18.7481,171.073 13.7481,167.24 9.5,162.5C 8.29056,158.703 6.79056,155.036 5,151.5C 4.33333,147.167 4.33333,142.833 5,138.5C 6.99756,134.007 8.49756,129.34 9.5,124.5C 10.9573,122.758 12.124,120.758 13,118.5C 14.4658,113.904 15.6325,109.237 16.5,104.5C 16.5,104.167 16.5,103.833 16.5,103.5C 18.8949,99.7163 21.0615,95.7163 23,91.5C 23.7083,90.6195 24.5416,89.9528 25.5,89.5C 25.0131,96.4664 22.8464,102.8 19,108.5C 15.3746,120.044 11.5412,131.377 7.5,142.5C 43.1682,142.667 78.8349,142.5 114.5,142C 113.239,137.598 111.239,133.598 108.5,130C 108.833,129.667 109.167,129.333 109.5,129C 106.712,122.121 104.046,115.121 101.5,108C 101.735,107.127 102.069,106.293 102.5,105.5C 101.167,101.5 98.5,98.8333 94.5,97.5C 93.1667,99.8333 91.8333,102.167 90.5,104.5C 88.0707,105.324 85.5707,105.324 83,104.5C 81.2841,104.748 79.7841,105.415 78.5,106.5C 75.715,103.737 72.8817,103.404 70,105.5C 67.7908,105.011 65.9575,104.011 64.5,102.5C 67.2372,102.599 69.9039,102.265 72.5,101.5C 77.3633,101.819 82.03,101.486 86.5,100.5C 91.1894,97.012 92.6894,92.3453 91,86.5C 89.1879,85.0229 87.3545,83.6896 85.5,82.5C 81.3656,81.5151 77.0323,81.1818 72.5,81.5C 72.8565,80.1301 73.6898,79.1301 75,78.5C 78.7938,79.2297 82.6272,79.7297 86.5,80C 88.0095,82.7548 90.3429,83.9215 93.5,83.5C 93.5,81.8333 93.5,80.1667 93.5,78.5 Z"/></g>
<g><path style="opacity:0.329" fill="#e9e393" d="M 9.5,124.5 C 8.49756,129.34 6.99756,134.007 5,138.5C 4.33333,142.833 4.33333,147.167 5,151.5C 6.79056,155.036 8.29056,158.703 9.5,162.5C 2.03389,153.004 0.867222,142.671 6,131.5C 6.89837,128.931 8.06504,126.598 9.5,124.5 Z"/></g>
<g><path style="opacity:0.976" fill="#ece07f" d="M 104.5,103.5 C 109.833,116.661 114.499,130.161 118.5,144C 117.717,150.685 115.55,156.851 112,162.5C 94.5029,181.221 73.0029,188.388 47.5,184C 31.5977,182.224 18.931,175.057 9.5,162.5C 13.7481,167.24 18.7481,171.073 24.5,174C 33.4694,176.97 42.4694,179.803 51.5,182.5C 54.3333,182.833 57.1667,183.167 60,183.5C 73.6289,182.387 86.4622,178.72 98.5,172.5C 103.141,167.358 107.974,162.358 113,157.5C 116.729,150.814 117.396,143.814 115,136.5C 109.199,126.263 105.699,115.263 104.5,103.5 Z"/></g>
</svg>
