<svg width="101" height="101" xmlns="http://www.w3.org/2000/svg" xmlns:xlink="http://www.w3.org/1999/xlink" xml:space="preserve" overflow="hidden"><defs><clipPath id="clip0"><rect x="522" y="150" width="101" height="101"/></clipPath></defs><g clip-path="url(#clip0)" transform="translate(-522 -150)"><path d="M25.3818 89.0886C20.5228 73.6442 3.45268 53.8627 3.45268 53.8627 3.51679 53.9839 9.9053 66.198 17.2053 84.9759 18.9242 89.4032 20.4396 93.9216 21.7057 98.407L21.862 98.9619 27.5754 98.9619 27.4472 98.0865C26.9964 95.0404 26.3023 92.0115 25.3818 89.0886" stroke="#2C8458" stroke-width="0.667766" fill="#71D358" transform="matrix(1.00834 0 0 1 522 150)"/><path d="M56.1304 60.4645C56.1634 60.6258 59.5671 76.6652 59.4148 92.8248 59.3958 94.4996 59.3637 96.3005 59.3146 98.1786L59.2936 98.9619 64.2898 98.9619 64.3419 98.2547C64.4351 96.9716 64.4861 95.7917 64.4952 94.745 64.5943 83.1869 56.1304 60.4645 56.1304 60.4645" stroke="#2C8458" stroke-width="0.667766" fill="#71D358" transform="matrix(1.00834 0 0 1 522 150)"/><path d="M98.2097 28.1674C98.2097 28.1674 86.7027 41.7117 83.2881 60.138 82.2243 65.8915 81.7796 69.9832 81.5683 73.9878 81.5472 74.4335 81.5232 74.8783 81.5002 75.32 80.9773 70.3198 79.9206 65.4397 78.0174 61.3981 70.443 45.3096 58.7006 33.9659 52.6567 30.2668 52.0907 29.9223 51.652 29.9363 51.3535 30.3049 50.8677 30.9049 51.043 31.0942 53.2276 33.411 57.3734 37.8102 67.5031 47.9269 72.5855 59.7604 79.1373 75.0175 73.9838 97.3012 73.6092 97.6147L73.494 97.7118C74.0559 94.6077 73.4188 87.7154 70.2006 76.0442 64.4992 55.3721 47.8818 38.1628 47.8818 38.1628 48.0321 38.4663 63.0518 68.625 65.7923 75.7096 68.035 81.5242 67.6143 94.3653 67.433 98.1626L67.3959 98.9619 72.0085 98.9619 73.2315 98.9619 74.3874 98.9619 78.6735 98.9619 81.0124 98.9619 81.0885 98.2858C81.2337 97.0187 84.7084 80.5646 85.6269 72.1237 88.1842 48.6761 97.0838 30.4121 98.0895 28.4048L98.2097 28.1674Z" stroke="#2C8458" stroke-width="0.667766" fill="#71D358" transform="matrix(1.00834 0 0 1 522 150)"/><path d="M22.6152 62.1723C19.3979 48.4047 24.0366 38.7027 24.0826 38.6065 24.0826 38.6065 12.1109 54.2994 23.7962 82.2153 28.4288 93.2785 32.1018 97.4684 33.4661 98.7536L33.6865 98.9619 37.0891 98.9619 36.5602 97.8651C34.7462 94.1119 25.5541 74.752 22.6152 62.1723" stroke="#2C8458" stroke-width="0.667766" fill="#71D358" transform="matrix(1.00834 0 0 1 522 150)"/><path d="M48.5119 98.9619 50.6884 98.9619 50.3278 97.9432C49.4935 95.5903 47.3309 89.281 45.0772 81.0083 46.4334 83.3001 47.4792 85.07 47.979 85.9134 50.2677 89.7868 51.6691 97.4684 51.8203 98.3299L51.9305 98.9609 57.6499 98.9609 59.0021 98.9609 59.0412 98.415C59.0592 98.1546 59.4599 91.9844 57.3053 85.042 55.1798 78.1967 47.8047 60.735 47.7296 60.5607L46.2992 57.1801 46.2621 60.8492C46.2612 61.0886 46.2541 66.7709 50.5282 77.5647 51.4998 80.0167 52.3932 82.4467 53.1966 84.7435 53.0143 84.414 52.831 84.0854 52.6336 83.7499 50.4891 80.0748 46.2341 74.089 41.9881 68.3395 39.8566 58.3681 38.2379 47.2928 38.4904 37.2834 38.7828 25.6793 41.3771 17.2494 43.5006 12.2211 45.8024 6.77415 50.3459 1.30114 50.3459 1.30114 50.3459 1.30114 33.1846 7.61153 34.7682 48.9666 34.8944 52.245 35.253 56.1474 35.9562 60.2993 32.5866 55.869 28.7583 53.44 28.7583 53.44 28.7583 53.44 32.9943 60.5937 37.5208 68.2413 38.3992 72.2199 39.4059 76.2215 40.4185 79.9716 34.3716 70.4349 25.0452 62.5339 25.0452 62.5339 25.1093 62.6361 31.6281 72.8629 39.1404 88.5808 40.6679 91.7741 42.0953 95.1025 43.3824 98.4671L43.5687 98.9589 46.1009 98.9589 48.5119 98.9589Z" stroke="#2C8458" stroke-width="0.667766" fill="#71D358" transform="matrix(1.00834 0 0 1 522 150)"/><text fill="#71D358" font-family="Arial,Arial_MSFontService,sans-serif" font-weight="700" font-size="5" transform="matrix(1.01 0 0 1.00165 522 265)">Created by Luis Prado</text><text fill="#71D358" font-family="Arial,Arial_MSFontService,sans-serif" font-weight="700" font-size="5" transform="matrix(1.01 0 0 1.00165 522 270)">from the Noun Project</text></g></svg>