<svg width="89" height="65" xmlns="http://www.w3.org/2000/svg" xmlns:xlink="http://www.w3.org/1999/xlink" xml:space="preserve" overflow="hidden"><defs><clipPath id="clip0"><rect x="614" y="298" width="89" height="65"/></clipPath></defs><g clip-path="url(#clip0)" transform="translate(-614 -298)"><path d="M90.7342 58.8728C90.7342 58.8728 79.986 43.8061 74.3049 52.0217 74.3049 52.0217 74.5774 57.8904 69.4334 54.9146 69.4334 54.9146 64.4256 51.8006 66.2107 60.3055 66.2107 60.3055 67.7243 64.5698 62.0382 64.6626 62.0382 64.6626 57.7947 63.4926 57.9793 69.0878 57.9793 69.0878 56.6267 74.9556 54.6441 75.3169 54.6441 75.3169 54.7132 75.3604 54.8188 75.4196 54.4723 75.4492 54.102 75.469 53.6755 75.469 52.3821 75.469 51.5123 75.3199 50.7678 75.0997 49.5149 72.4467 55.1614 65.8168 55.1614 65.8168 61.8615 61.1723 56.8093 57.2299 56.8093 57.2299 51.9803 50.5032 58.2795 48.568 58.2795 48.568 69.775 43.269 61.7865 40.1194 61.7865 40.1194 53.8384 36.6884 60.9374 31.9127 60.9374 31.9127 65.6065 18.1364 38.6611 18.6567 38.6611 18.6567 28.3257 25.0141 35.9025 29.5213 35.9025 29.5213 44.4133 31.5345 40.303 36.7467 40.303 36.7467 29.001 42.024 36.3952 45.376 36.3952 45.376 46.0592 47.3704 40.1944 52.702 40.1944 52.702 29.7425 61.1131 42.5038 63.7523 42.5038 63.7523 41.943 70.9944 49.1733 74.4412 50.5368 75.0237 50.1566 74.9012 49.8012 74.761 49.4319 74.6139 48.1701 74.1094 46.7395 73.5368 44.0253 73.5368 43.4151 73.5368 42.878 73.5683 42.3853 73.6197 41.3703 71.7704 40.7503 69.0858 40.7503 69.0858 40.9339 63.4906 36.6914 64.6606 36.6914 64.6606 31.0053 64.5678 32.5179 60.3035 32.5179 60.3035 34.305 51.7986 29.2962 54.9126 29.2962 54.9126 24.1512 57.8895 24.4247 52.0197 24.4247 52.0197 18.7436 43.8051 7.99742 58.8709 7.99742 58.8709 7.27074 67.1714 12.8561 64.8403 12.8561 64.8403 17.4512 60.9729 18.6419 65.3735 18.6419 65.3735 16.9219 73.7658 21.7984 71.0615 21.7984 71.0615 26.8545 66.5523 27.3926 71.9659 27.3926 71.9659 27.4193 72.6531 27.4864 73.2593 27.5802 73.8043 26.8002 73.6444 25.883 73.5368 24.7209 73.5368 23.858 73.5368 23.158 74.2368 23.158 75.0987 23.158 75.9616 23.857 76.6627 24.7209 76.6627 26.8328 76.6627 27.8211 77.0576 28.9655 77.5157 30.2273 78.0202 31.6569 78.5929 34.3711 78.5929 35.5737 78.5929 36.5156 78.4764 37.3114 78.3085 39.1706 78.5277 40.9912 77.649 42.2767 76.7801 42.7714 76.7081 43.3342 76.6627 44.0243 76.6627 46.1362 76.6627 47.1245 77.0576 48.2698 77.5157 49.5317 78.0202 50.9613 78.5929 53.6755 78.5929 56.3907 78.5929 57.8213 78.0212 59.0841 77.5157 60.2304 77.0576 61.2197 76.6627 63.3336 76.6627 65.4475 76.6627 66.4368 77.0576 67.5831 77.5157 68.8449 78.0202 70.2766 78.5929 72.9917 78.5929 73.8547 78.5929 74.5547 77.8919 74.5547 77.0309 74.5547 76.168 73.8547 75.467 72.9917 75.467 72.0627 75.467 71.3567 75.387 70.7525 75.2636 71.0704 74.4826 71.2817 73.4123 71.338 71.9659 71.338 71.9659 71.876 66.5523 76.9332 71.0615 76.9332 71.0615 81.8086 73.7658 80.0887 65.3735 80.0887 65.3735 81.2784 60.9729 85.8745 64.8403 85.8755 64.8423 91.4608 67.1734 90.7342 58.8728Z" fill="#007435" transform="matrix(1.02216 0 0 1 607.284 281.545)"/><text fill="#007435" font-family="Arial,Arial_MSFontService,sans-serif" font-weight="700" font-size="5" transform="matrix(1.00922 0 0 0.987336 607.284 395)">Created by Brand Mania</text><text fill="#007435" font-family="Arial,Arial_MSFontService,sans-serif" font-weight="700" font-size="5" transform="matrix(1.00922 0 0 0.987336 607.284 400)">from the Noun Project</text></g></svg>