<svg width="74" height="72" xmlns="http://www.w3.org/2000/svg" xmlns:xlink="http://www.w3.org/1999/xlink" xml:space="preserve" overflow="hidden"><defs><clipPath id="clip0"><rect x="463" y="435" width="74" height="72"/></clipPath></defs><g clip-path="url(#clip0)" transform="translate(-463 -435)"><path d="M40.336 50.8797C40.343 42.7106 44.1697 39.3616 47.3798 37.9894 53.9269 35.1901 64.1599 38.1303 71.1747 44.8273 72.4199 46.0156 73.5343 47.135 74.5377 48.1933 68.8571 39.8263 59.5216 30.6378 45.491 29.3456 37.7016 28.63 31.7051 32.1429 29.4675 38.748 26.8201 46.5643 29.8083 58.0415 40.6418 64.8544 46.7912 68.7211 52.9345 71.7194 57.9725 73.8941 57.4219 73.5403 56.8682 73.1785 56.3135 72.8037 45.7058 65.623 40.33 58.2464 40.336 50.8797Z" fill="#676767" transform="matrix(1 0 0 1.00522 449.697 419.932)"/><path d="M59.9913 63.7231C59.9134 59.0109 61.8882 55.478 65.4101 54.0309 69.5466 52.3319 74.8945 54.0269 79.035 58.3513 79.7256 59.0739 80.3372 59.8034 80.9089 60.534 79.2359 56.8372 76.4016 52.5807 69.7945 46.2735 63.4273 40.1961 53.9249 37.3668 48.1654 39.8273 44.3556 41.4553 42.3398 45.2781 42.3348 50.8817 42.3248 62.6897 58.6371 72.5149 67.3919 76.9383 63.7371 73.7022 60.0793 69.1269 59.9913 63.7231Z" fill="#676767" transform="matrix(1 0 0 1.00522 449.697 419.932)"/><path d="M27.5746 38.1073C30.1291 30.5668 36.9001 26.5462 45.6748 27.3557 57.197 28.4161 65.6779 34.4995 71.6724 41.2675 61.4635 26.0385 48.9339 20.3269 48.788 20.262 45.4939 18.575 41.995 17.7325 38.3372 17.7325 25.5708 17.7325 15.184 28.3062 15.184 41.3014 15.184 49.2577 19.3825 56.8132 26.4153 61.5114 30.202 64.0399 37.8965 67.332 46.4494 70.5441 44.1967 69.3298 41.8881 67.9986 39.5785 66.5464 27.8684 59.1838 24.6753 46.6663 27.5746 38.1073Z" fill="#676767" transform="matrix(1 0 0 1.00522 449.697 419.932)"/><path d="M77.5909 59.7335C74.025 56.0067 69.5387 54.4946 66.1697 55.8808 63.4503 56.9981 61.9262 59.8454 61.9901 63.6901 62.1381 72.7198 73.2964 78.999 75.5701 80.2723 79.057 82.2251 83.1905 82.358 83.4694 82.2091 83.7482 82.0602 83.7482 82.0602 84.0001 81.5585 84.6597 80.2503 85.0524 77.286 84.3608 72.5978 83.7272 69.4477 82.0472 64.3887 77.5909 59.7335Z" fill="#676767" transform="matrix(1 0 0 1.00522 449.697 419.932)"/><text fill="#676767" font-family="Arial,Arial_MSFontService,sans-serif" font-weight="700" font-size="5" transform="matrix(0.999406 0 0 1.00462 449.697 535)">Created by Melissa Maury</text><text fill="#676767" font-family="Arial,Arial_MSFontService,sans-serif" font-weight="700" font-size="5" transform="matrix(0.999406 0 0 1.00462 449.697 540)">from the Noun Project</text></g></svg>