<svg width="278" height="442" xmlns="http://www.w3.org/2000/svg" xmlns:xlink="http://www.w3.org/1999/xlink" xml:space="preserve" overflow="hidden"><g transform="translate(-503 0)"><path d="M216.229 412.508C206.929 366.859 190.534 328.868 170.674 293.661 155.944 267.545 138.88 243.439 123.09 218.112 117.82 209.659 113.271 200.726 108.206 191.953 98.0796 174.408 89.8689 154.067 90.3907 127.68 90.9004 101.899 98.3567 81.2189 109.109 64.3101 126.793 36.4993 156.414 13.6975 196.158 7.70527 228.655 2.80592 259.122 11.0833 280.726 23.7169 298.381 34.041 312.055 47.8316 322.446 64.0843 333.294 81.0479 340.764 101.089 341.39 127.229 341.711 140.622 339.519 153.024 336.429 163.312 333.303 173.725 328.275 182.43 323.802 191.728 315.068 209.877 304.119 226.506 293.13 243.144 260.401 292.706 229.681 343.249 216.229 412.508Z" stroke="#000000" stroke-width="8.87565" stroke-miterlimit="10" fill="#FF0000" fill-rule="evenodd" transform="matrix(1.00125 0 0 1 423.452 0)"/><path d="M259.872 121.031C259.872 145.32 240.183 165.009 215.894 165.009 191.606 165.009 171.916 145.32 171.916 121.031 171.916 96.7428 191.606 77.0531 215.894 77.0531 240.183 77.0531 259.872 96.7428 259.872 121.031Z" fill-rule="evenodd" transform="matrix(1.00125 0 0 1 423.452 0)"/></g></svg>