<svg width="533" height="500" xmlns="http://www.w3.org/2000/svg" xmlns:xlink="http://www.w3.org/1999/xlink" xml:space="preserve" overflow="hidden"><defs><clipPath id="clip0"><rect x="717" y="397" width="533" height="500"/></clipPath><clipPath id="clip1"><rect x="717" y="495" width="533" height="322"/></clipPath><clipPath id="clip2"><rect x="717" y="495" width="533" height="322"/></clipPath><clipPath id="clip3"><rect x="717" y="495" width="534" height="322"/></clipPath></defs><g clip-path="url(#clip0)" transform="translate(-717 -397)"><g clip-path="url(#clip1)"><g clip-path="url(#clip2)"><g clip-path="url(#clip3)"><path d="M129.392 374.361C109.31 374.361 92.9621 390.708 92.9621 410.789 92.9621 430.873 109.31 447.22 129.392 447.22 149.473 447.22 165.821 430.873 165.821 410.789 165.821 390.708 149.473 374.361 129.392 374.361Z" stroke="#000000" stroke-width="5.34158" fill="#47D45A" transform="matrix(1.0007 0 0 1 691.848 365.578)"/><path d="M489.909 410.789C489.909 390.708 473.562 374.361 453.48 374.361 433.398 374.361 417.049 390.708 417.049 410.789 417.049 430.873 433.398 447.22 453.48 447.22 473.562 447.22 489.909 430.873 489.909 410.789Z" stroke="#000000" stroke-width="5.34158" fill="#47D45A" transform="matrix(1.0007 0 0 1 691.848 365.578)"/><path d="M553.453 306.784C553.249 304.005 552.954 301.272 552.476 298.678L530.252 169.058C526.951 149.705 510.331 135.657 490.728 135.657L69.282 135.657C57.2148 135.657 29.1414 141.599 29.1414 196.631L29.1414 374.226C29.1414 392.783 44.1457 407.854 62.6111 407.854L78.5263 407.854C80.0519 381.079 102.251 359.767 129.391 359.767 156.532 359.767 178.73 381.079 180.256 407.854L402.634 407.854C404.158 381.079 426.358 359.767 453.497 359.767 480.639 359.767 502.836 381.079 504.363 407.854L513.607 407.854C535.738 407.854 553.747 389.846 553.747 367.715L553.747 312.979C553.747 311.978 553.657 311.022 553.633 310.042 553.702 309.633 553.747 309.223 553.747 308.79 553.725 308.13 553.61 307.446 553.451 306.786ZM152.549 266.505 46.6296 266.505 46.6296 196.63C46.6296 176.799 50.5686 153.143 69.2841 153.143L152.547 153.143ZM275.931 266.505 170.035 266.505 170.035 153.142 275.955 153.142ZM399.337 266.505 293.417 266.505 293.417 153.142 399.337 153.142ZM457.328 300.088C450.474 300.088 443.803 297.423 439.022 292.803L416.822 271.285 416.822 153.138 490.732 153.138C501.797 153.138 511.155 161.062 513.022 171.991L534.992 300.088Z" stroke="#000000" stroke-width="5.34158" fill="#47D45A" transform="matrix(1.0007 0 0 1 691.848 365.578)"/><text fill="#47D45A" font-family="Arial,Arial_MSFontService,sans-serif" font-weight="700" font-size="5" transform="matrix(5.83284 0 0 5.82871 691.848 1050)">Created by Maxim Kulikov</text><text fill="#47D45A" font-family="Arial,Arial_MSFontService,sans-serif" font-weight="700" font-size="5" transform="matrix(5.83284 0 0 5.82871 691.848 1080)">from Noun Project</text></g></g></g></g></svg>