<svg width="660" height="641" xmlns="http://www.w3.org/2000/svg" xmlns:xlink="http://www.w3.org/1999/xlink" xml:space="preserve" overflow="hidden"><g transform="translate(-18 -39)"><path d="M255.167 59.9698 464.464 59.9698C471.436 59.968 476.779 59.9668 481.45 60.4238 514.668 63.6733 541.858 83.6449 553.387 110.547L166.244 110.547C177.773 83.6449 204.962 63.6733 238.18 60.4238 242.852 59.9668 248.196 59.968 255.167 59.9698Z" stroke="#000000" stroke-width="25.1872" fill="#C417A5" transform="matrix(1.00031 0 0 1 -23.802 -1.1628)"/><path d="M189.219 141.622C147.522 141.622 113.331 166.801 101.921 200.206 101.683 200.902 101.455 201.602 101.237 202.305 113.176 198.69 125.601 196.328 138.178 194.716 170.573 190.562 211.512 190.565 259.069 190.567L465.726 190.567C513.282 190.565 554.223 190.562 586.619 194.716 599.195 196.328 611.62 198.69 623.557 202.305 623.341 201.602 623.114 200.902 622.874 200.206 611.464 166.801 577.273 141.622 535.576 141.622L189.219 141.622Z" stroke="#000000" stroke-width="25.1872" fill="#C417A5" transform="matrix(1.00031 0 0 1 -23.802 -1.1628)"/><path d="M459.595 226.146 260.04 226.146C158.847 226.146 108.25 226.146 79.829 255.736 51.408 285.326 58.0949 331.041 71.469 422.473L84.1517 509.174C94.6397 580.877 99.8838 616.727 126.786 638.196 153.688 659.665 193.366 659.665 272.722 659.665L446.911 659.665C526.269 659.665 565.948 659.665 592.85 638.196 619.752 616.727 624.994 580.877 635.482 509.174L648.166 422.473C661.539 331.044 668.226 285.326 639.806 255.736 611.383 226.146 560.787 226.146 459.595 226.146ZM437.214 473.585C453.957 463.208 453.957 436.335 437.214 425.958L336.117 363.283C319.845 353.197 299.848 366.327 299.848 387.1L299.848 512.443C299.848 533.216 319.845 546.346 336.117 536.26L437.214 473.585Z" stroke="#000000" stroke-width="25.1872" fill="#C417A5" fill-rule="evenodd" transform="matrix(1.00031 0 0 1 -23.802 -1.1628)"/></g></svg>